<svg width="400" height="538" viewBox="0 0 400 538" fill="none" xmlns="http://www.w3.org/2000/svg">
<path d="M307.044 450.337C306.966 458.241 305.824 465.973 302.254 473.416C292.312 494.13 268.518 507.51 245.856 511.471C238.849 513.024 231.522 513.543 224.219 513.189C216.831 512.965 209.612 511.799 202.693 509.777C184.888 505.025 166.608 494.177 162.29 474.639C157.948 456.775 160.134 438.953 155.804 421.053C150.319 395.218 131.106 377.634 113.265 358.769C84.0754 327.718 47.136 305.73 31.9672 265.247C29.6499 257.305 28.5588 249.072 29.1088 240.852C29.6845 234.164 31.6742 227.45 35.0943 221.237C39.3984 213.53 44.6313 207.872 50.5355 203.85C56.4271 199.865 62.9541 197.503 69.9055 196.452C77.9099 195.49 85.6914 195.851 93.2787 197.226C100.866 198.601 108.236 200.941 115.429 203.9C123.605 206.803 131.151 211.048 138.525 215.553C153.89 224.979 166.404 232.005 184.682 232.997C191.768 233.396 201.646 235.452 208.332 232.866C215.633 230.015 222.481 223.64 229.625 220.093C244.358 212.753 260.539 208.845 276.937 210.622C303.204 213.45 325.046 230.632 339.153 252.596C351.068 271.19 353.723 294.672 344.812 315.306C340.052 326.378 331.68 335.384 325.162 345.4C315.533 360.174 303.738 378.957 301.43 396.896C299.651 410.574 305.245 424.751 306.439 438.308C306.836 442.333 307.077 446.343 307.044 450.337Z" fill="#09C6C6"/>
<path d="M155.607 135.676C170.008 103.042 159.397 71.0609 166.287 49.8816C172.487 30.8602 185.546 11.1899 202.172 4.85612C241.562 -10.0723 243.493 47.1288 276.467 52.4144C305.861 57.1342 346.805 38.5148 364.982 80.7712C371.497 95.9456 369.441 117.408 375.133 133.85C381.966 153.51 396.579 168.417 395.444 191.008C392.965 240.575 353.5 231.201 325.95 240.8C299.047 250.192 291.093 306.291 262.741 300.618C250.015 298.079 233.716 272.005 222.522 263.336C198.647 244.856 181.001 245.935 164.549 230.412C141.351 208.577 135.24 181.838 155.607 135.676Z" fill="#003260"/>
</svg>
