<svg width="469" height="580" viewBox="0 0 469 580" fill="none" xmlns="http://www.w3.org/2000/svg">
<path d="M154.015 53.7373C170.093 54.8865 186.114 60.8453 201.547 66.5278L201.923 66.6462C215.477 71.7367 229.572 76.9063 242.293 77.8177C246.73 78.2136 250.812 77.8604 254.635 77.1522C258.951 76.3259 263.288 74.8689 268.071 73.0967C269.501 72.5453 270.931 71.9939 272.408 71.6397C278.668 69.5132 285.633 67.4264 293.352 67.0351C295.089 67.0357 296.989 66.997 298.773 67.1948C322.644 68.9777 345.388 87.7117 355.174 113.931C358.412 122.329 360.008 131.121 361.695 138.848C363.788 148.981 365.431 157.97 369.551 162.82C370.069 163.53 370.704 164.003 371.386 164.674C374.233 167.119 378.228 169.289 382.599 171.577C388.145 174.417 394.537 177.889 400.489 183.134C418.036 198.318 427.217 226.351 423.651 252.644C422.271 262.775 419.106 272.708 414.274 282.207C409.628 291.036 403.738 299.746 396.249 307.588C393.769 310.268 391.241 312.751 388.714 315.234C384.22 319.647 380.055 323.982 376.593 328.357C373.015 332.968 371.031 336.988 370.175 341.364C368.877 347.513 369.955 355.595 370.964 364.11C372.261 375.267 373.844 387.607 371.227 400.537C370.509 404.045 369.415 407.435 368.157 410.864C362.702 424.266 352.617 435.024 339.751 441.445C325.291 448.457 309.804 449.043 297.929 448.762C294.62 448.722 291.639 448.602 288.823 448.443C284.598 448.205 280.654 447.691 276.874 447.138C261.332 444.609 248.763 439.283 238.367 430.724C225.22 420.115 223.448 406.986 222.608 399.89L222.56 399.693C221.575 399.929 220.426 400.205 218.996 400.756C215.48 402.016 211.682 403.552 208.26 405.207C205.119 406.585 202.307 407.885 199.728 408.712C189.575 411.98 178.766 415.406 167.202 417.136C158.851 418.513 150.967 418.944 143.434 418.665C142.894 418.586 142.354 418.507 141.861 418.625C123.131 417.278 104.147 409.11 89.7741 396.293C77.1889 385.131 68.3025 370.581 64.1292 354.693C59.5288 337.03 60.415 317.634 67.0944 297.058C68.4434 292.565 70.1206 287.992 72.1736 283.538C75.2987 276.325 78.5187 269.507 81.8337 263.082C84.8678 256.933 87.8326 251.218 90.2101 245.227C92.099 240.812 93.5903 236.91 94.8007 233.284C99.8029 217.28 99.4786 201.511 93.5371 191.259C92.0992 188.893 90.2381 186.212 88.1653 183.373C84.0672 177.891 79.615 171.661 76.3773 163.263C75.5268 161.173 74.8405 159.044 74.3184 156.876C70.0502 140.593 72.8629 121.986 82.3627 103.028C85.1634 97.3521 88.3873 91.9919 91.7537 87.2231C101.455 73.4289 112.694 63.8534 125.399 58.9304C133.979 55.6221 143.034 54.2852 153.22 54.762L154.015 53.7373Z" fill="#FF9240"/>
<path d="M208.892 579.778C202.036 579.901 195.179 579.167 188.568 577.822C185.262 577.21 181.956 576.354 178.651 575.498C172.407 574.031 166.04 573.052 159.551 574.031C144.369 576.232 126.126 580.879 114.25 571.707C111.924 569.873 109.72 567.427 108.006 564.369C104.333 558.255 102.007 551.284 102.374 543.946C102.619 537.832 104.088 531.839 104.945 525.847C108.129 509.093 98.0889 494.784 84.7436 485.735C62.9503 471.182 34.0558 452.715 22.1797 428.868C19.8534 424.099 18.1393 419.085 17.2823 413.948C15.6907 406.122 16.6701 398.05 19.2412 390.468C25.9751 371.146 41.157 355.37 61.8484 348.888C86.5801 341.428 120.25 332.379 135.431 356.104C150.124 378.85 143.512 418.962 176.692 425.811C195.424 429.969 219.421 423.61 230.44 441.831C233.746 446.356 235.093 451.003 234.97 455.528C234.726 469.225 222.115 482.677 214.524 494.662C203.627 511.539 214.769 527.681 224.808 540.767C229.338 546.637 232.277 553.975 230.685 561.557C229.951 564.981 228.359 568.161 226.155 570.973C223.829 573.786 220.891 576.11 217.217 577.699C214.646 578.678 211.83 579.412 208.892 579.778Z" fill="#003260"/>
</svg>
