<svg width="381" height="503" viewBox="0 0 381 503" fill="none" xmlns="http://www.w3.org/2000/svg">
<path d="M328.73 246.421C320.471 258.055 309.4 267.439 298.769 276.506L298.522 276.736C289.126 284.653 279.429 292.942 272.893 302.146C270.568 305.32 268.852 308.57 267.468 311.786C265.921 315.43 264.736 319.379 263.527 323.809C263.179 325.143 262.83 326.478 262.342 327.758C260.646 333.468 258.595 339.693 255.187 345.711C254.367 347.024 253.494 348.48 252.536 349.738C240.229 366.976 218.447 375.585 198.354 370.96C191.869 369.556 185.926 366.731 180.569 364.462C173.601 361.397 167.519 358.517 162.713 359.409C162.05 359.475 161.471 359.738 160.753 359.947C157.968 360.978 154.803 363.004 151.392 365.261C147.1 368.153 142.037 371.395 136.134 373.491C118.897 379.798 98.0189 373.884 84.1776 359.126C78.8476 353.435 74.4754 346.485 71.1457 338.473C68.1239 330.909 65.7588 322.458 64.6595 313.197C64.2468 310.092 63.9729 307.041 63.699 303.991C63.212 298.567 62.6167 293.428 61.666 288.804C60.6307 283.982 59.1926 280.638 57.0132 277.983C53.9945 274.181 48.7151 271.289 43.2122 268.146C36.0138 264.009 27.9829 259.546 21.5835 251.636C19.8509 249.483 18.3653 247.101 16.9338 244.577C11.5939 234.304 9.99736 221.74 12.2726 209.064C14.9506 194.91 21.9065 182.928 27.6707 174.075C29.2548 171.591 30.7306 169.391 32.1522 167.333C34.2846 164.247 36.4474 161.5 38.5561 158.895C47.3766 148.299 56.4474 141.236 66.4012 137.299C78.863 132.221 87.449 136.903 92.0347 139.522L92.1734 139.577C92.4984 138.723 92.8775 137.728 93.2262 136.393C94.1402 133.155 95.0238 129.579 95.6603 126.232C96.3273 123.224 96.8859 120.5 97.6137 118.17C100.471 108.992 103.545 99.2449 107.975 89.7041C111.1 82.7566 114.562 76.596 118.279 71.0256C118.58 70.6535 118.881 70.2813 119.044 69.8547C128.67 56.3056 142.442 45.6936 156.786 40.7017C169.308 36.3024 182.088 36.2551 193.435 40.3867C206.032 45.0091 217.064 54.576 226.063 69.0662C228.08 72.1478 229.988 75.5137 231.65 79.1096C234.435 84.7819 236.942 90.3452 239.172 95.7995C241.372 100.915 243.348 105.779 245.764 110.325C247.48 113.779 249.08 116.697 250.65 119.276C257.74 130.4 267.202 137.388 276.056 137.597C278.131 137.594 280.591 137.417 283.244 137.151C288.412 136.566 294.19 136.056 300.674 137.459C302.309 137.775 303.889 138.232 305.416 138.832C317.041 143.073 326.699 153.735 333.413 169.616C335.443 174.338 337.088 179.235 338.316 183.969C341.885 197.634 342.24 210.527 339.156 222.395C337.064 230.402 333.584 237.864 328.5 245.35L328.73 246.421Z" fill="#183560"/>
<path d="M260.963 502.057C253.325 502.197 245.686 501.359 238.321 499.822C234.639 499.123 230.956 498.145 227.273 497.167C220.317 495.49 213.225 494.372 205.996 495.49C189.083 498.005 168.76 503.315 155.53 492.835C152.938 490.74 150.483 487.945 148.574 484.452C144.482 477.466 141.891 469.502 142.3 461.118C142.573 454.132 144.209 447.286 145.164 440.439C148.71 421.297 137.526 404.95 122.659 394.61C98.3808 377.983 66.1918 356.885 52.9616 329.639C50.3701 324.19 48.4606 318.461 47.5058 312.593C45.7327 303.65 46.8238 294.429 49.6881 285.766C57.1898 263.689 74.1027 245.665 97.1533 238.26C124.705 229.737 162.213 219.397 179.126 246.503C195.493 272.492 188.128 318.321 225.091 326.146C245.959 330.896 272.693 323.631 284.968 344.449C288.651 349.619 290.151 354.929 290.015 360.098C289.742 375.747 275.693 391.117 267.237 404.81C255.098 424.092 267.51 442.535 278.694 457.485C283.74 464.192 287.014 472.576 285.241 481.238C284.422 485.151 282.649 488.783 280.194 491.997C277.603 495.211 274.329 497.865 270.237 499.682C267.373 500.8 264.236 501.638 260.963 502.057Z" fill="#0AC7C7"/>
</svg>
