<svg width="382" height="368" viewBox="0 0 382 368" fill="none" xmlns="http://www.w3.org/2000/svg">
<path d="M188.71 0.478146C171.21 -2.02185 153.51 5.47815 141.51 18.3781C123.41 38.0781 134.01 56.1781 149.51 73.0781C166.51 92.6781 174.01 108.978 167.11 135.178C161.51 155.778 147.91 180.078 157.51 201.578C166.01 222.278 192.31 231.878 213.21 228.978C238.51 225.078 248.31 204.278 243.01 180.378C238.11 158.478 221.31 136.678 223.51 113.578C224.41 98.3782 236.21 89.0781 243.51 76.6781C262.91 43.7781 232.21 6.07815 188.71 0.478146Z" fill="#003260"/>
<path d="M295.669 100.258C319.886 106.729 340.557 120.891 353.766 140.303C354.133 140.791 354.5 141.401 354.867 141.89C369.789 164.598 371.134 188.161 372.357 210.991C372.602 215.63 372.847 220.392 373.336 225.153C373.947 232.234 374.681 238.094 375.66 243.466C376.271 246.885 377.005 250.181 377.617 253.355C381.775 273.5 385.445 290.836 376.394 314.154C371.012 328.072 362.695 340.281 352.176 349.438C349.608 351.757 346.795 353.833 343.981 355.664C325.879 367.507 303.13 371.047 281.603 365.309C269.128 362.013 257.63 355.664 248.335 347.118C246.5 345.409 244.666 343.577 242.953 341.624C234.758 332.223 229.01 321.48 223.384 310.98C221.549 307.684 219.714 304.143 217.88 300.847C212.498 291.446 204.059 278.261 192.317 273.133C190.849 272.523 189.381 272.035 187.791 271.546C181.798 269.959 174.826 269.715 165.042 270.936C163.696 271.058 162.473 271.302 161.128 271.424C159.171 271.668 157.214 272.035 155.379 272.279C144.371 273.988 132.996 275.697 121.132 273.988C119.053 273.744 116.974 273.255 114.894 272.767C104.254 269.959 95.0803 264.099 89.0871 256.285C86.6409 253.233 84.8062 249.815 83.3385 246.152C80.8923 239.804 80.1584 232.967 79.5469 227.107C78.9353 220.758 78.3238 214.776 75.7553 211.113C73.9206 208.427 70.7405 206.474 66.0927 205.253C64.2581 204.765 62.1788 204.398 59.9772 204.154C57.7757 203.91 55.4518 203.788 53.0056 203.666C47.3793 203.3 41.6307 202.933 35.6375 201.346C34.1698 200.98 32.8244 200.492 31.479 200.003C23.7735 197.195 16.9241 191.945 11.6647 184.864C0.779127 170.458 -2.89016 149.825 2.36918 132.245C6.4054 118.571 14.8448 106.607 26.8312 97.6943C35.5152 91.1016 45.7893 86.5843 56.1856 84.5089C68.6613 82.0671 81.9931 82.5555 95.6918 86.2181C100.951 87.5611 106.21 89.3924 111.47 91.712C115.261 93.2991 119.175 95.2525 122.845 97.2059C126.392 99.1593 129.816 101.235 133.241 103.188C141.558 108.194 149.386 112.833 157.458 114.909C158.315 115.153 159.171 115.397 160.027 115.519C173.481 118.083 187.914 113.199 203.202 108.072C206.749 106.851 210.541 105.63 214.21 104.409C223.506 101.479 232.679 99.4035 241.485 98.0605C258.364 95.4967 274.509 95.7409 289.309 98.793C291.633 99.2814 293.712 99.7697 295.669 100.258Z" fill="#FF9040"/>
</svg>
