<svg width="342" height="428" viewBox="0 0 342 428" fill="none" xmlns="http://www.w3.org/2000/svg">
<path d="M310.705 186.176C304.753 197.227 296.037 206.652 287.675 215.75L287.482 215.978C280.08 223.936 272.455 232.252 267.744 240.995C266.056 244.018 264.918 247.036 264.071 249.987C263.13 253.327 262.546 256.891 261.999 260.874C261.848 262.072 261.697 263.27 261.416 264.437C260.588 269.588 259.505 275.226 257.193 280.842C256.622 282.077 256.019 283.44 255.318 284.643C246.437 301.025 228.119 311.019 209.731 309.337C203.807 308.872 198.196 307.109 193.17 305.763C186.62 303.912 180.878 302.118 176.717 303.449C176.136 303.583 175.654 303.879 175.041 304.143C172.691 305.36 170.122 307.486 167.36 309.839C163.893 312.845 159.783 316.246 154.791 318.748C140.236 326.219 120.997 323.509 106.957 312.311C101.55 307.991 96.843 302.469 92.9359 295.904C89.3555 289.693 86.2528 282.636 84.1777 274.729C83.4428 272.083 82.8376 269.468 82.2324 266.853C81.1564 262.205 80.018 257.816 78.6251 253.914C77.1338 249.851 75.46 247.116 73.21 245.066C70.0788 242.117 65.0482 240.221 59.7896 238.132C52.9077 235.378 45.2479 232.437 38.6276 226.317C36.8338 224.651 35.2322 222.756 33.6617 220.732C27.7016 212.439 24.7932 201.725 25.3088 190.464C26.0068 177.875 30.7605 166.673 34.8276 158.324C35.9392 155.985 36.9884 153.906 38.0064 151.956C39.5333 149.031 41.1275 146.397 42.6906 143.892C49.2643 133.678 56.4794 126.498 64.8496 121.928C75.3111 116.078 83.4896 119.144 87.8718 120.885L88.0014 120.916C88.1887 120.138 88.4071 119.23 88.5584 118.032C88.9856 115.117 89.3456 111.911 89.5135 108.934C89.7487 106.247 89.9214 103.819 90.2911 101.714C91.7385 93.4199 93.3108 84.6076 96.1124 75.8168C98.0618 69.4273 100.405 63.6812 103.044 58.4177C103.267 58.0599 103.49 57.7021 103.584 57.3131C110.522 44.4426 121.49 33.6392 133.633 27.6452C144.229 22.3765 155.569 20.8535 166.134 23.122C177.867 25.6714 188.797 32.6918 198.505 44.2192C200.662 46.6586 202.756 49.3574 204.658 52.2843C207.803 56.8823 210.69 61.418 213.317 65.8911C215.877 70.0738 218.209 74.0644 220.893 77.7284C222.826 80.5257 224.594 82.8715 226.294 84.9268C233.908 93.7554 243.139 98.7205 251.024 97.8748C252.866 97.6322 255.029 97.1927 257.353 96.6547C261.872 95.5475 266.941 94.4355 272.865 94.901C274.353 94.9849 275.811 95.1986 277.237 95.5418C288.062 97.8728 297.902 106.003 305.747 119.002C308.11 122.863 310.152 126.921 311.804 130.885C316.595 142.326 318.44 153.47 317.11 164.124C316.203 171.313 313.999 178.19 310.373 185.273L310.705 186.176Z" fill="#183560"/>
<path d="M253.97 427.987C247.128 428.109 240.286 427.375 233.689 426.03C230.39 425.419 227.092 424.563 223.793 423.707C217.562 422.239 211.209 421.261 204.734 422.239C189.585 424.44 171.381 429.087 159.53 419.915C157.209 418.081 155.01 415.635 153.299 412.578C149.634 406.463 147.313 399.492 147.679 392.155C147.924 386.04 149.39 380.048 150.245 374.055C153.421 357.301 143.403 342.993 130.086 333.943C108.34 319.39 79.507 300.924 67.6562 277.077C65.3349 272.307 63.6245 267.293 62.7693 262.157C61.1811 254.33 62.1584 246.259 64.7241 238.676C71.4436 219.354 86.593 203.578 107.24 197.097C131.919 189.637 165.517 180.587 180.666 204.312C195.327 227.059 188.729 267.171 221.838 274.019C240.531 278.177 264.476 271.818 275.472 290.04C278.771 294.565 280.115 299.212 279.992 303.737C279.748 317.433 267.164 330.886 259.59 342.871C248.716 359.747 259.834 375.89 269.852 388.975C274.372 394.845 277.305 402.183 275.716 409.765C274.983 413.189 273.395 416.369 271.196 419.182C268.875 421.994 265.943 424.318 262.277 425.908C259.712 426.886 256.902 427.62 253.97 427.987Z" fill="#0AC7C7"/>
</svg>
