<svg width="99" height="99" viewBox="0 0 99 99" fill="none" xmlns="http://www.w3.org/2000/svg">
<g clip-path="url(#clip0_1845_29)">
<path d="M49.5053 99.0107C76.8464 99.0107 99.0107 76.8464 99.0107 49.5053C99.0107 22.1643 76.8464 0 49.5053 0C22.1643 0 0 22.1643 0 49.5053C0 76.8464 22.1643 99.0107 49.5053 99.0107Z" fill="#003260"/>
<path d="M32.5239 77C31.9317 77 31.3258 76.9311 30.7199 76.8072C27.7455 76.1738 25.3908 74.0393 24.4269 71.1199C24.3167 70.7757 24.2341 70.4314 24.1515 70.1009C24.1102 69.9632 24.0826 69.8255 24.0413 69.674L24 69.5363V67.2779L24.1102 67.0438C24.1102 67.03 24.1239 67.03 24.1239 67.0163C24.4544 65.0608 25.4046 63.3671 26.9606 61.9762C27.8282 61.2051 28.7095 60.4064 29.5632 59.6214C29.9763 59.2359 30.4032 58.864 30.8163 58.4922L33.5153 56.0411C38.8031 51.2626 44.27 46.319 49.6542 41.4579C49.0621 39.6127 48.8555 37.671 49.0345 35.688C49.3099 32.5346 50.5493 29.5876 52.6148 27.1915C54.6942 24.7817 57.4069 23.1292 60.4777 22.4269C60.9872 22.3167 61.483 22.2203 61.9787 22.1377C62.199 22.0964 62.4193 22.0551 62.6397 22.0138L62.7361 22H65.201L65.9721 22.1377C66.4954 22.2341 67.0049 22.3305 67.5281 22.4269C68.6435 22.6335 69.4285 23.322 69.7176 24.341C69.9104 25.0295 69.938 26.0623 68.9052 27.0951C68.1616 27.8388 67.418 28.5686 66.6744 29.3122C65.7793 30.2073 64.8567 31.1299 63.9341 32.0388C64.0856 32.7411 64.2233 33.4572 64.361 34.1457C64.4987 34.8205 64.6364 35.509 64.7741 36.1975C65.4213 36.3353 66.0685 36.4592 66.7157 36.5831C67.4455 36.7346 68.2029 36.8723 68.9465 37.0376C69.6763 36.2939 70.4199 35.5641 71.1635 34.8205C72.0311 33.9529 72.9261 33.0578 73.7937 32.1765C74.1242 31.846 75.1432 30.8132 76.6717 31.2539C78.1589 31.6808 78.4894 33.0441 78.5858 33.4985C79.5634 37.5471 78.7923 41.8711 76.4651 45.3413C74.1242 48.8252 70.3924 51.1938 66.2475 51.8272C63.9478 52.1715 61.6895 52.0063 59.5413 51.3177L57.3794 53.7138C51.3342 60.4064 45.0962 67.3192 38.9271 74.1082C37.2058 75.981 34.9199 77 32.5239 77ZM26.2033 69.2609C26.2308 69.3711 26.2583 69.4675 26.2859 69.5776C26.3685 69.8806 26.4374 70.1698 26.52 70.4452C27.236 72.6209 28.9711 74.1908 31.1744 74.659C33.4189 75.141 35.691 74.3836 37.2746 72.6485C43.43 65.8733 49.6817 58.9467 55.7132 52.2679L57.9715 49.7616C58.5499 49.1144 59.2384 48.9354 60.0508 49.197C61.9098 49.8167 63.879 49.982 65.8895 49.6652C69.4285 49.1282 72.6094 47.1039 74.6061 44.1294C76.6166 41.1274 77.2638 37.5333 76.4238 34.0356C76.2861 33.471 76.1622 33.4296 76.0245 33.4021C75.9005 33.3608 75.7628 33.3195 75.3359 33.7601C74.4546 34.6415 73.5596 35.5366 72.692 36.4041C71.9209 37.1753 71.1498 37.9464 70.3786 38.7176C70.1996 38.8966 69.635 39.4612 68.6573 39.2546C67.8586 39.0894 67.0462 38.9241 66.2613 38.7727C65.4901 38.6212 64.7052 38.4559 63.9203 38.2907C63.342 38.1667 62.8049 37.6435 62.681 37.0651C62.502 36.2389 62.3367 35.3988 62.1715 34.5864C62.02 33.8428 61.8685 33.0716 61.717 32.3142C61.5793 31.6395 61.7446 31.0749 62.2541 30.5929C63.2042 29.6565 64.1682 28.6925 65.0908 27.7561C65.8344 27.0125 66.578 26.2689 67.3216 25.5253C67.6521 25.1948 67.6108 25.0571 67.5695 24.9331C67.5281 24.8092 67.4868 24.6577 67.0875 24.5751C66.578 24.4787 66.0547 24.3823 65.5452 24.2859L64.9669 24.1758H62.9013C62.7085 24.2171 62.5157 24.2446 62.3229 24.2859C61.841 24.3686 61.3866 24.4512 60.9321 24.5613C58.3295 25.1673 56.0161 26.5719 54.2397 28.6237C52.4771 30.6755 51.4168 33.1818 51.1827 35.8808C51.0312 37.6297 51.224 39.351 51.7611 40.9622C52.0227 41.7334 51.8437 42.4081 51.224 42.9589C45.7985 47.8613 40.2766 52.8463 34.9474 57.6798L32.2485 60.1309C31.8353 60.5028 31.4222 60.8883 30.9953 61.2601C30.1416 62.0313 29.2603 62.8438 28.379 63.6287C27.1534 64.7166 26.4511 65.9835 26.2308 67.512C26.217 67.6222 26.1895 67.7048 26.1619 67.7874V69.2609H26.2033ZM32.7442 70.8996C32.0694 70.8996 31.3947 70.6242 30.899 70.1284C30.3895 69.6189 30.0865 68.9304 30.1003 68.2281C30.114 66.7822 31.2983 65.6117 32.7442 65.5979C34.1901 65.5979 35.3743 66.7684 35.3881 68.2006C35.4019 69.6465 34.2452 70.8445 32.813 70.8858C32.7855 70.8996 32.758 70.8996 32.7442 70.8996Z" fill="#F7EDE2"/>
</g>
<defs>
<clipPath id="clip0_1845_29">
<rect width="99" height="99" fill="white"/>
</clipPath>
</defs>
</svg>
