<svg width="107" height="107" viewBox="0 0 107 107" fill="none" xmlns="http://www.w3.org/2000/svg">
<g filter="url(#filter0_d_1845_28)">
<g clip-path="url(#clip0_1845_28)">
<path d="M53.5053 99.0107C80.8464 99.0107 103.011 76.8464 103.011 49.5053C103.011 22.1643 80.8464 0 53.5053 0C26.1643 0 4 22.1643 4 49.5053C4 76.8464 26.1643 99.0107 53.5053 99.0107Z" fill="#02827B"/>
<g clip-path="url(#clip1_1845_28)">
<path d="M81.0001 37.5646C80.705 37.9187 80.4246 38.2876 80.0999 38.6121C67.6154 51.1081 55.116 63.6041 42.6167 76.1001C42.292 76.4246 41.9231 76.7049 41.5689 77C41.3476 77 41.141 77 40.9196 77C40.5654 76.7049 40.1965 76.4246 39.8719 76.1001C35.4595 71.7036 31.0618 67.2924 26.6494 62.8959C25.764 62.0107 25.764 61.4649 26.6494 60.5944C39.2963 47.9509 51.9285 35.3074 64.5754 22.6639C65.4608 21.7787 66.0068 21.7787 66.8775 22.6639C71.3046 27.0604 75.7023 31.4716 80.1147 35.868C80.4393 36.1926 80.705 36.5614 81.0149 36.9155C81.0001 37.1368 81.0001 37.3581 81.0001 37.5646ZM63.5424 27.1194C63.7047 27.2521 63.8523 27.3702 63.9998 27.503C65.933 29.4209 67.8515 31.3535 69.7699 33.2715C69.888 33.3895 70.006 33.4928 70.1093 33.6108C70.5815 34.1714 70.5815 34.8501 70.1093 35.3074C69.6518 35.75 69.0025 35.7352 68.4565 35.2779C68.3385 35.1746 68.2204 35.0566 68.1171 34.9386C66.1839 33.0059 64.236 31.0732 62.3175 29.1258C62.1847 28.993 62.1257 28.7865 62.0962 28.7275C60.9451 29.8782 59.9416 30.8814 58.7758 32.0322C60.0597 33.2567 61.4026 34.5107 62.7455 35.7943C62.9078 35.9565 63.0701 36.1336 63.1882 36.3254C63.6014 37.0335 63.1587 37.904 62.347 38.022C61.8305 38.0958 61.4616 37.8302 61.1222 37.4909C59.794 36.1631 58.4807 34.8205 57.1673 33.5075C56.1195 34.555 55.116 35.573 54.0535 36.6352C54.2896 36.8565 54.5553 37.0778 54.8209 37.3433C56.7246 39.2465 58.6282 41.1349 60.5171 43.0381C61.0779 43.6135 61.1074 44.3216 60.6352 44.8085C60.1482 45.2953 59.4546 45.2511 58.8643 44.7052C58.5397 44.3954 58.2298 44.0708 57.9199 43.761C56.09 41.9316 54.2453 40.0874 52.445 38.2876C51.412 39.3203 50.4085 40.3235 49.3607 41.3562C50.6151 42.6102 51.9137 43.8938 53.1976 45.1773C53.3747 45.3543 53.5518 45.5314 53.6846 45.7527C54.024 46.2838 53.8617 46.9624 53.3452 47.3018C52.8287 47.6558 52.2531 47.5526 51.7071 47.0215C50.4675 45.7822 49.2279 44.5429 47.9735 43.3036C47.8702 43.2004 47.7374 43.0971 47.6489 43.0233C46.6159 44.0413 45.6272 45.0445 44.4909 46.1658C44.6384 46.2543 44.8303 46.3281 44.9778 46.4608C46.9405 48.4083 48.8885 50.3557 50.8364 52.3031C50.984 52.4506 51.1463 52.6129 51.2644 52.79C51.7957 53.5424 51.3234 54.6194 50.4085 54.6046C50.0248 54.6046 49.5526 54.3243 49.2574 54.044C47.2504 52.0966 45.2877 50.1049 43.3103 48.128C43.1775 47.9952 43.0299 47.8624 42.9856 47.8181C41.9379 48.8656 40.9344 49.8688 39.9309 50.8721C39.9456 50.8868 40.0047 50.9458 40.0637 51.0196C41.3623 52.3031 42.661 53.5866 43.9448 54.8849C44.5204 55.4603 44.5499 56.1537 44.0629 56.6406C43.5612 57.1422 42.9118 57.1127 42.3068 56.5373C41.9526 56.2127 41.628 55.8586 41.2738 55.5193C40.2555 54.5013 39.2225 53.4686 38.2928 52.5244C35.1643 55.6521 32.0801 58.7355 29.0696 61.7452C33.1131 65.7876 37.2303 69.9037 41.2443 73.9166C53.478 61.6862 65.7707 49.3967 77.9601 37.1958C73.9167 33.1387 69.7994 29.0373 65.7117 24.9359C65.0328 25.6293 64.3245 26.3374 63.5424 27.1194Z" fill="#F7EDE2"/>
<path d="M39.503 67.4686C37.4222 67.4686 35.7546 65.8162 35.7399 63.736C35.7104 61.6558 37.4222 59.9297 39.503 59.9297C41.569 59.9297 43.3103 61.6706 43.2955 63.736C43.266 65.7867 41.569 67.4686 39.503 67.4686ZM40.9639 63.8245C40.9787 63.0131 40.2998 62.305 39.4882 62.2902C38.7208 62.2902 38.101 62.8951 38.0715 63.677C38.042 64.4737 38.6618 65.1228 39.4734 65.1228C40.2408 65.1523 40.9639 64.5179 40.9639 63.8245Z" fill="#F7EDE2"/>
</g>
</g>
</g>
<defs>
<filter id="filter0_d_1845_28" x="0" y="0" width="107" height="107" filterUnits="userSpaceOnUse" color-interpolation-filters="sRGB">
<feFlood flood-opacity="0" result="BackgroundImageFix"/>
<feColorMatrix in="SourceAlpha" type="matrix" values="0 0 0 0 0 0 0 0 0 0 0 0 0 0 0 0 0 0 127 0" result="hardAlpha"/>
<feOffset dy="4"/>
<feGaussianBlur stdDeviation="2"/>
<feComposite in2="hardAlpha" operator="out"/>
<feColorMatrix type="matrix" values="0 0 0 0 0 0 0 0 0 0 0 0 0 0 0 0 0 0 0.25 0"/>
<feBlend mode="normal" in2="BackgroundImageFix" result="effect1_dropShadow_1845_28"/>
<feBlend mode="normal" in="SourceGraphic" in2="effect1_dropShadow_1845_28" result="shape"/>
</filter>
<clipPath id="clip0_1845_28">
<rect width="99" height="99" fill="white" transform="translate(4)"/>
</clipPath>
<clipPath id="clip1_1845_28">
<rect width="55" height="55" fill="white" transform="translate(26 22)"/>
</clipPath>
</defs>
</svg>
