<svg width="99" height="99" viewBox="0 0 99 99" fill="none" xmlns="http://www.w3.org/2000/svg">
<g clip-path="url(#clip0_1845_27)">
<path d="M49.5053 99.0107C76.8464 99.0107 99.0107 76.8464 99.0107 49.5053C99.0107 22.1643 76.8464 0 49.5053 0C22.1643 0 0 22.1643 0 49.5053C0 76.8464 22.1643 99.0107 49.5053 99.0107Z" fill="#003260"/>
<g clip-path="url(#clip1_1845_27)">
<path d="M78 62.1656C77.8996 62.6623 77.8103 63.17 77.6876 63.6667C76.5161 68.512 72.1762 71.9555 67.1444 71.9886C63.0053 72.0107 58.8661 71.9997 54.7269 71.9886C53.9013 71.9886 53.3993 71.5692 53.3881 70.907C53.377 70.2227 53.8902 69.7812 54.7381 69.7812C58.8215 69.7812 62.9049 69.7923 66.9883 69.7812C71.2055 69.7702 74.7087 66.9337 75.5901 62.8389C75.6236 62.6623 75.6459 62.4857 75.6794 62.265C58.2079 62.265 40.7921 62.265 23.2983 62.265C23.3541 62.585 23.3876 62.8941 23.4657 63.181C24.4028 66.9888 27.8837 69.7481 31.8556 69.7702C35.9166 69.7923 39.9888 69.7702 44.0499 69.7812C44.2396 69.7812 44.4181 69.7702 44.6077 69.7923C45.1767 69.8585 45.6007 70.322 45.6007 70.8739C45.6007 71.4257 45.1879 71.9003 44.6301 71.9776C44.4627 71.9997 44.2954 71.9886 44.128 71.9886C40.1339 71.9886 36.1509 71.9886 32.1568 71.9886C26.623 71.9886 22.2049 68.3685 21.1674 62.9934C21.0781 62.5078 21.0335 62.0111 21.0112 61.5145C20.9665 60.5653 21.1785 60.2893 22.1157 59.9582C22.1157 59.7706 22.1157 59.5719 22.1157 59.3733C22.1157 56.4153 22.1157 53.4464 22.1157 50.4884C22.1157 44.5063 23.8561 39.0871 27.404 34.2419C27.5602 34.0211 27.6494 33.7121 27.6606 33.4361C27.6941 32.6856 27.6606 31.9241 27.6829 31.1735C27.761 28.4032 30.7176 26.6483 33.2167 27.8955C33.596 28.0832 33.8303 28.039 34.1538 27.8183C36.017 26.538 38.0364 25.5226 40.1785 24.761C40.5021 24.6396 40.6248 24.5072 40.6471 24.154C40.7475 21.2733 43.057 19.0328 45.9689 19.0107C48.3453 18.9886 50.7217 18.9886 53.0981 19.0107C56.0211 19.0438 58.3194 21.2733 58.4198 24.165C58.431 24.4851 58.5203 24.6506 58.8326 24.75C61.0528 25.5226 63.1168 26.5821 65.047 27.9176C65.2924 28.0942 65.4709 28.0832 65.7387 27.9507C68.3494 26.6263 71.4063 28.3922 71.3394 31.295C71.3059 33.0388 71.741 34.4516 72.7228 35.9195C75.6236 40.2791 76.9178 45.1575 76.9289 50.378C76.9289 53.5567 76.9289 56.7464 76.9289 59.7264C77.3752 60.1679 77.7099 60.499 78.0446 60.8302C78 61.2827 78 61.7242 78 62.1656ZM58.1186 26.847C58.0963 26.9795 58.0628 27.0898 58.0517 27.2002C57.5831 30.423 57.1033 33.6348 56.6348 36.8576C55.9207 41.7912 55.2178 46.7137 54.4927 51.6473C54.2361 53.3912 52.8415 54.5501 51.0564 54.5721C50.0411 54.5832 49.0147 54.5832 47.9994 54.5721C46.1028 54.5611 44.7416 53.347 44.485 51.4818C44.2284 49.5834 43.9383 47.696 43.6706 45.8087C42.9789 41.0407 42.2871 36.2837 41.5954 31.5157C41.3723 29.9705 41.1491 28.4364 40.9149 26.8691C39.1075 27.4982 37.4674 28.337 35.8943 29.3304C35.1245 29.816 35.1245 29.816 35.2807 30.6769C35.3142 30.8755 35.3476 31.0742 35.3476 31.2729C35.3476 36.1623 35.3588 41.0628 35.3365 45.9522C35.3365 47.1111 34.8344 48.1044 33.9084 48.8218C32.6812 49.782 31.3089 49.9697 29.8808 49.3185C28.475 48.6452 27.6941 47.4974 27.6718 45.9411C27.6383 43.513 27.6606 41.0848 27.6606 38.6567C27.6606 38.4801 27.6606 38.3145 27.6606 38.1048C27.5602 38.16 27.5156 38.16 27.5044 38.1821C27.4375 38.2925 27.3705 38.4028 27.3147 38.5132C25.4181 42.0119 24.4251 45.7425 24.3582 49.7048C24.3024 52.9828 24.347 56.2498 24.347 59.5278C24.347 59.6713 24.3582 59.8147 24.3694 59.9913C41.138 59.9913 57.8843 59.9913 74.6418 59.9913C74.653 59.8479 74.6641 59.7375 74.6641 59.6381C74.6641 56.2718 74.7087 52.9055 74.6418 49.5392C74.5637 45.6321 73.5596 41.9568 71.6853 38.5132C71.6072 38.3808 71.5179 38.2483 71.4398 38.1159C71.3394 38.3145 71.3394 38.4911 71.3394 38.6567C71.3394 41.1179 71.3729 43.5903 71.3171 46.0515C71.2725 48.2479 69.175 49.9366 66.9883 49.6165C65.0135 49.3295 63.6524 47.7733 63.6524 45.7535C63.6412 41.0628 63.6412 36.372 63.6524 31.6813C63.6524 31.1735 63.7863 30.6658 63.8309 30.1581C63.842 30.0036 63.7974 29.7829 63.697 29.7056C61.9677 28.5136 60.1157 27.5755 58.1186 26.847ZM49.4944 21.2181C48.323 21.2181 47.1515 21.2071 45.9912 21.2181C43.983 21.2402 42.5884 22.9068 42.8784 24.8714C43.5032 29.1096 44.1057 33.3478 44.7193 37.5861C45.3776 42.1554 46.047 46.7137 46.7164 51.2831C46.8168 51.9784 47.2519 52.3426 47.9659 52.3537C48.9812 52.3647 50.0076 52.3647 51.0229 52.3537C51.7369 52.3426 52.172 51.9784 52.2725 51.2831C52.6853 48.5238 53.0869 45.7535 53.4885 42.9942C54.3588 36.979 55.229 30.9528 56.1104 24.9266C56.4116 22.8847 55.017 21.2402 52.9419 21.2181C51.8039 21.2071 50.6436 21.2181 49.4944 21.2181ZM29.8808 38.5684C29.8808 40.9414 29.8808 43.3143 29.8808 45.6763C29.8808 46.7358 30.5725 47.4643 31.5097 47.4532C32.4469 47.4422 33.1163 46.6917 33.1163 45.6431C33.1163 44.9037 33.1163 44.1752 33.1163 43.4357C33.1163 39.4624 33.1163 35.5001 33.1163 31.5267C33.1163 30.8093 32.882 30.2244 32.2126 29.8822C31.1192 29.3193 29.8808 30.0809 29.8696 31.3391C29.8696 33.7562 29.8808 36.1623 29.8808 38.5684ZM69.1192 38.5463C69.1192 36.1733 69.1192 33.8004 69.1192 31.4384C69.1192 30.423 68.4386 29.7167 67.4903 29.7277C66.5754 29.7277 65.8837 30.423 65.8837 31.4053C65.8726 36.2065 65.8726 40.9965 65.8949 45.7977C65.8949 46.184 66.0957 46.6365 66.3412 46.9345C66.7763 47.4643 67.3899 47.5967 68.0593 47.3649C68.7064 47.1442 69.108 46.5592 69.1192 45.8308C69.1192 43.3916 69.1192 40.9634 69.1192 38.5463Z" fill="#F7EDE2"/>
<path d="M49.5167 71.9888C48.9031 71.9999 48.3899 71.4811 48.3899 70.8741C48.401 70.2891 48.892 69.7925 49.4833 69.7814C50.0969 69.7704 50.6213 70.2891 50.6101 70.8962C50.5989 71.4811 50.108 71.9778 49.5167 71.9888Z" fill="#F7EDE2"/>
</g>
</g>
<defs>
<clipPath id="clip0_1845_27">
<rect width="99" height="99" fill="white"/>
</clipPath>
<clipPath id="clip1_1845_27">
<rect width="57" height="53" fill="white" transform="translate(21 19)"/>
</clipPath>
</defs>
</svg>
