<svg width="99" height="99" viewBox="0 0 99 99" fill="none" xmlns="http://www.w3.org/2000/svg">
<g clip-path="url(#clip0_1845_28)">
<path d="M49.5053 99.0107C76.8464 99.0107 99.0107 76.8464 99.0107 49.5053C99.0107 22.1643 76.8464 0 49.5053 0C22.1643 0 0 22.1643 0 49.5053C0 76.8464 22.1643 99.0107 49.5053 99.0107Z" fill="#02827B"/>
<g clip-path="url(#clip1_1845_28)">
<path d="M77.0001 37.5646C76.705 37.9187 76.4246 38.2876 76.0999 38.6121C63.6154 51.1081 51.116 63.6041 38.6167 76.1001C38.292 76.4246 37.9231 76.7049 37.5689 77C37.3476 77 37.141 77 36.9196 77C36.5654 76.7049 36.1965 76.4246 35.8719 76.1001C31.4595 71.7036 27.0618 67.2924 22.6494 62.8959C21.764 62.0107 21.764 61.4649 22.6494 60.5944C35.2963 47.9509 47.9285 35.3074 60.5754 22.6639C61.4608 21.7787 62.0068 21.7787 62.8775 22.6639C67.3046 27.0604 71.7023 31.4716 76.1147 35.868C76.4393 36.1926 76.705 36.5614 77.0149 36.9155C77.0001 37.1368 77.0001 37.3581 77.0001 37.5646ZM59.5424 27.1194C59.7047 27.2521 59.8523 27.3702 59.9998 27.503C61.933 29.4209 63.8515 31.3535 65.7699 33.2715C65.888 33.3895 66.006 33.4928 66.1093 33.6108C66.5815 34.1714 66.5815 34.8501 66.1093 35.3074C65.6518 35.75 65.0025 35.7352 64.4565 35.2779C64.3385 35.1746 64.2204 35.0566 64.1171 34.9386C62.1839 33.0059 60.236 31.0732 58.3175 29.1258C58.1847 28.993 58.1257 28.7865 58.0962 28.7275C56.9451 29.8782 55.9416 30.8814 54.7758 32.0322C56.0597 33.2567 57.4026 34.5107 58.7455 35.7943C58.9078 35.9565 59.0701 36.1336 59.1882 36.3254C59.6014 37.0335 59.1587 37.904 58.347 38.022C57.8305 38.0958 57.4616 37.8302 57.1222 37.4909C55.794 36.1631 54.4807 34.8205 53.1673 33.5075C52.1195 34.555 51.116 35.573 50.0535 36.6352C50.2896 36.8565 50.5553 37.0778 50.8209 37.3433C52.7246 39.2465 54.6282 41.1349 56.5171 43.0381C57.0779 43.6135 57.1074 44.3216 56.6352 44.8085C56.1482 45.2953 55.4546 45.2511 54.8643 44.7052C54.5397 44.3954 54.2298 44.0708 53.9199 43.761C52.09 41.9316 50.2453 40.0874 48.445 38.2876C47.412 39.3203 46.4085 40.3235 45.3607 41.3562C46.6151 42.6102 47.9137 43.8938 49.1976 45.1773C49.3747 45.3543 49.5518 45.5314 49.6846 45.7527C50.024 46.2838 49.8617 46.9624 49.3452 47.3018C48.8287 47.6558 48.2531 47.5526 47.7071 47.0215C46.4675 45.7822 45.2279 44.5429 43.9735 43.3036C43.8702 43.2004 43.7374 43.0971 43.6489 43.0233C42.6159 44.0413 41.6272 45.0445 40.4909 46.1658C40.6384 46.2543 40.8303 46.3281 40.9778 46.4608C42.9405 48.4083 44.8885 50.3557 46.8364 52.3031C46.984 52.4506 47.1463 52.6129 47.2644 52.79C47.7957 53.5424 47.3234 54.6194 46.4085 54.6046C46.0248 54.6046 45.5526 54.3243 45.2574 54.044C43.2504 52.0966 41.2877 50.1049 39.3103 48.128C39.1775 47.9952 39.0299 47.8624 38.9856 47.8181C37.9379 48.8656 36.9344 49.8688 35.9309 50.8721C35.9456 50.8868 36.0047 50.9458 36.0637 51.0196C37.3623 52.3031 38.661 53.5866 39.9448 54.8849C40.5204 55.4603 40.5499 56.1537 40.0629 56.6406C39.5612 57.1422 38.9118 57.1127 38.3068 56.5373C37.9526 56.2127 37.628 55.8586 37.2738 55.5193C36.2555 54.5013 35.2225 53.4686 34.2928 52.5244C31.1643 55.6521 28.0801 58.7355 25.0696 61.7452C29.1131 65.7876 33.2303 69.9037 37.2443 73.9166C49.478 61.6862 61.7707 49.3967 73.9601 37.1958C69.9167 33.1387 65.7994 29.0373 61.7117 24.9359C61.0328 25.6293 60.3245 26.3374 59.5424 27.1194Z" fill="#F7EDE2"/>
<path d="M35.503 67.4686C33.4222 67.4686 31.7546 65.8162 31.7399 63.736C31.7104 61.6558 33.4222 59.9297 35.503 59.9297C37.569 59.9297 39.3103 61.6706 39.2955 63.736C39.266 65.7867 37.569 67.4686 35.503 67.4686ZM36.9639 63.8245C36.9787 63.0131 36.2998 62.305 35.4882 62.2902C34.7208 62.2902 34.101 62.8951 34.0715 63.677C34.042 64.4737 34.6618 65.1228 35.4734 65.1228C36.2408 65.1523 36.9639 64.5179 36.9639 63.8245Z" fill="#F7EDE2"/>
</g>
</g>
<defs>
<clipPath id="clip0_1845_28">
<rect width="99" height="99" fill="white"/>
</clipPath>
<clipPath id="clip1_1845_28">
<rect width="55" height="55" fill="white" transform="translate(22 22)"/>
</clipPath>
</defs>
</svg>
