<svg width="367" height="544" viewBox="0 0 367 544" fill="none" xmlns="http://www.w3.org/2000/svg">
<path d="M30.5464 95.1204C27.9117 87.6678 26.3353 80.0126 27.1388 71.7973C29.3828 48.9309 47.1515 28.2086 67.0853 16.722C73.1359 12.863 79.8417 9.86513 86.8235 7.69558C93.8411 5.37433 101.023 3.99624 108.216 3.52544C126.571 1.88992 147.461 5.8177 158.212 22.6939C168.413 37.9892 172.465 55.481 182.665 70.8141C196.67 93.2065 220.745 103.143 243.97 114.754C282.031 133.925 324.268 141.926 352.389 174.761C357.287 181.428 361.133 188.79 363.433 196.7C365.183 203.181 365.614 210.171 364.53 217.179C363.127 225.894 360.149 233.003 355.98 238.804C351.811 244.567 346.488 249.022 340.317 252.391C333.127 256.037 325.693 258.364 318.094 259.672C310.495 260.98 302.769 261.306 294.998 260.99C286.322 261.064 277.778 259.662 269.307 257.956C251.642 254.365 237.479 252.052 219.966 257.382C213.173 259.436 203.188 260.888 197.793 265.608C191.911 270.788 187.661 279.124 182.166 284.904C170.839 296.847 156.976 306.062 140.962 310.012C115.316 316.354 88.9085 307.695 68.1304 291.894C50.5663 278.508 40.0255 257.357 41.3278 234.918C42.0063 222.886 46.786 211.557 49.4778 199.914C53.4622 182.735 58.1085 161.047 54.13 143.403C51.1148 129.944 41.0027 118.542 35.2361 106.214C33.4841 102.569 31.8831 98.8842 30.5464 95.1204Z" fill="#09C6C6"/>
<path d="M280.626 338.852C278.278 374.444 299.204 400.854 299.987 423.112C300.679 443.107 295.15 466.061 281.7 477.708C249.81 505.228 228.398 452.151 195.608 458.482C166.376 464.119 134.289 495.64 102.735 462.169C91.4156 450.145 85.9937 429.278 75.0122 415.781C61.8573 399.652 43.0214 390.653 36.3477 369.041C21.694 321.625 61.9821 316.91 84.5761 298.453C106.633 280.412 94.8843 224.984 123.464 220.599C136.29 218.624 160.536 237.536 174.022 241.845C202.784 251.026 218.992 243.966 239.768 252.913C269.042 265.479 283.945 288.506 280.626 338.852Z" fill="#FF9240"/>
</svg>
