<svg width="437" height="553" viewBox="0 0 437 553" fill="none" xmlns="http://www.w3.org/2000/svg">
<path d="M54.5332 366.688C46.4795 348.605 43.5754 330.096 46.1561 313.295C47.3063 305.559 49.6179 298.212 52.9087 291.392C61.955 272.679 79.8147 260.785 99.5385 260.382C102.694 260.362 106.003 260.544 109.376 260.997C123.522 263.102 136.345 269.886 148.845 276.438C151.706 277.919 154.323 279.268 157.016 280.718C170.188 287.394 188.419 293.713 199.952 286.175C206.342 282.089 210.144 274.241 214.247 265.843C217.839 258.474 221.536 250.866 227.345 244.513C233.82 237.333 242.931 232.283 252.902 230.244C259.92 228.867 267.421 228.876 274.445 230.524C292.096 234.575 307.813 247.599 315.601 264.768L315.895 265.34C319.194 272.864 321.081 280.99 321.616 289.989C322.144 300.109 321.056 310.189 319.919 319.827C318.34 333.79 316.817 347.073 320.5 359.247C321.171 361.445 322.087 363.774 323.233 366.406C324.967 370.184 326.869 373.992 329.092 378.034C331.302 382.245 333.511 386.456 335.525 390.977C337.972 396.442 339.607 401.411 340.494 406.154C341.046 408.762 341.339 411.408 341.387 413.923C342.24 435.595 326.903 455.128 304.141 461.361C299.606 462.594 294.855 463.354 289.888 463.642C273.781 464.63 257.655 460.689 245.51 457.054C241.096 455.804 236.695 454.383 232.295 452.962C224.564 450.578 217.261 448.187 209.901 446.476C204.052 445.046 198.924 444.181 194.194 443.65C187.436 442.915 180.607 443.031 173.442 443.085C165.424 443.153 157.238 443.19 148.709 442.213C111.741 437.776 73.3257 407.497 55.2462 368.375C55.1205 367.833 54.8269 367.261 54.5332 366.688Z" fill="#FF9240"/>
<path d="M193.675 53.1836C239.681 62.3181 276.703 38.1419 305.76 40.7796C331.86 43.1647 361.018 54.5387 374.458 74.8447C406.201 122.977 334.423 143.376 338.487 189.206C342.098 230.063 379.021 279.13 331.459 316.645C314.375 330.099 286.538 334.027 267.581 346.774C244.923 362.052 230.818 386.274 201.852 391.788C138.3 403.9 137.295 348.099 116.159 314.172C95.4971 281.047 21.8912 287.858 19.8254 248.1C18.8884 230.256 46.5789 200.298 53.9019 182.599C69.507 144.852 62.3863 121.543 76.6714 94.6635C96.745 56.7805 128.6 40.2657 193.675 53.1836Z" fill="#003260"/>
</svg>
