<svg width="382" height="460" viewBox="0 0 382 460" fill="none" xmlns="http://www.w3.org/2000/svg">
<path d="M128.186 329.612C107.038 324.038 88.9506 313.17 76.0113 298.261C70.0286 291.433 65.159 283.77 61.4025 275.549C51.1067 252.976 52.6371 226.92 65.4373 207.552C67.5243 204.487 69.8895 201.421 72.533 198.495C83.8027 186.373 98.2724 178.988 112.325 171.742C115.525 170.07 118.447 168.538 121.507 167.005C136.116 159.202 153.786 146.244 154.899 129.523C155.595 120.327 151.282 110.852 146.69 100.68C142.656 91.7628 138.482 82.5665 136.812 72.2555C134.864 60.6905 136.534 48.1502 141.403 37.0032C144.882 29.2003 149.89 21.9547 156.012 16.3812C171.317 2.30813 193.16 -3.26536 213.335 1.89012L214.03 2.02946C222.796 4.3982 231.143 8.57832 239.352 14.7092C248.535 21.676 256.605 30.1756 264.257 38.3965C275.387 50.2402 285.961 61.5265 299.04 66.9607C301.405 67.9361 304.049 68.7721 307.109 69.6081C311.562 70.7228 316.153 71.6982 321.162 72.5342C326.31 73.5096 331.458 74.4849 336.745 75.8783C343.145 77.5504 348.571 79.6404 353.301 82.2878C355.945 83.6812 358.449 85.3532 360.675 87.1646C380.154 102.352 386.971 131.613 377.232 158.227C375.284 163.522 372.78 168.677 369.719 173.693C359.84 189.996 345.649 202.675 334.379 211.732C330.344 215.076 326.171 218.281 321.997 221.486C314.762 227.199 307.805 232.494 301.405 238.346C296.257 242.944 292.083 247.263 288.466 251.443C283.318 257.435 278.866 264.123 274.135 271.09C268.848 278.893 263.422 286.835 256.883 294.359C228.361 326.825 176.325 341.595 130.134 330.169C129.577 329.89 128.881 329.751 128.186 329.612Z" fill="#003260"/>
<path d="M135.017 432.427C103.517 415.692 70.8487 423.949 50.2264 415.537C31.7061 407.971 13.0373 393.516 7.92905 376.474C-4.09614 336.103 53.094 338.336 60.7629 305.834C67.6073 276.861 52.014 234.67 95.4801 219.614C111.088 214.22 132.344 217.831 149.156 213.349C169.261 207.964 185.192 194.473 207.64 197.248C256.895 203.324 244.677 242.003 252.248 270.178C259.658 297.693 315.031 309.703 307.312 337.568C303.854 350.076 276.664 364.436 267.204 374.97C247.038 397.439 246.831 415.116 230.152 430.397C206.689 451.945 179.576 456.096 135.017 432.427Z" fill="#FF9240"/>
</svg>
