<svg width="408" height="560" viewBox="0 0 408 560" fill="none" xmlns="http://www.w3.org/2000/svg">
<path d="M108.951 352.269C87.408 348.502 68.4674 339.201 54.3149 325.438C47.7768 319.14 42.2772 311.915 37.8396 304.041C25.6737 282.419 24.9975 256.327 36.1157 235.947C37.9362 232.716 40.034 229.462 42.4209 226.323C52.6262 213.292 66.4203 204.711 79.8103 196.304C82.8577 194.368 85.6395 192.594 88.56 190.808C102.457 181.799 118.969 167.394 118.666 150.639C118.582 141.417 113.484 132.34 108.05 122.593C103.276 114.048 98.3401 105.237 95.8055 95.1042C92.8876 83.7451 93.4918 71.1085 97.4023 59.5899C100.209 51.5211 104.588 43.8783 110.217 37.8076C124.278 22.4919 145.573 15.093 166.11 18.5258L166.815 18.6058C175.749 20.2256 184.42 23.6856 193.118 29.101C202.856 35.2672 211.615 43.0547 219.934 50.5998C232.026 61.4608 243.515 71.8135 257.006 76.1234C259.445 76.8955 262.15 77.5052 265.271 78.0797C269.801 78.8143 274.458 79.3983 279.52 79.8082C284.732 80.3451 289.944 80.8821 295.329 81.8239C301.848 82.9493 307.431 84.5735 312.368 86.8118C315.12 87.9769 317.757 89.4314 320.128 91.0482C340.82 104.536 350.085 133.117 342.629 160.458C341.135 165.898 339.075 171.247 336.449 176.503C327.983 193.582 314.914 207.415 304.449 217.392C300.712 221.065 296.823 224.611 292.935 228.157C286.209 234.461 279.724 240.324 273.841 246.696C269.1 251.713 265.306 256.369 262.055 260.84C257.431 267.245 253.56 274.285 249.435 281.627C244.826 289.849 240.09 298.221 234.21 306.271C208.533 341.03 157.931 360.143 110.939 352.66C110.361 352.429 109.656 352.349 108.951 352.269Z" fill="#003260"/>
<path d="M178.188 266.321C213.848 265.48 238.284 242.279 260.383 239.511C280.235 237.036 303.592 240.493 316.393 252.849C346.652 282.154 295.699 308.221 304.934 340.314C313.159 368.925 347.42 398.069 316.901 432.487C305.936 444.835 285.637 452.099 273.174 464.242C258.285 478.785 251.004 498.349 230.075 506.926C184.157 525.756 175.862 486.051 155.461 465.195C135.522 444.838 81.3649 461.49 74.4451 433.416C71.3321 420.818 88.0032 394.98 91.0906 381.163C97.6655 351.696 89.1865 336.183 96.2426 314.692C106.143 284.412 127.747 267.512 178.188 266.321Z" fill="#FF9240"/>
</svg>
