<svg width="360" height="531" viewBox="0 0 360 531" fill="none" xmlns="http://www.w3.org/2000/svg">
<path d="M142.646 358.136C135.544 361.606 128.119 364.049 119.866 364.191C96.893 364.58 74.2728 349.3 60.5797 330.812C56.0533 325.243 52.3075 318.925 49.353 312.237C46.2436 305.532 44.0524 298.555 42.7612 291.463C39.0351 273.416 40.5455 252.213 56.0799 239.601C70.1069 227.717 87.0199 221.688 101.084 209.8C121.726 193.323 128.841 168.269 137.717 143.868C152.405 103.862 155.518 60.9868 184.918 29.2918C190.98 23.6628 197.853 18.9993 205.448 15.8093C211.686 13.3282 218.58 12.0998 225.667 12.3745C234.485 12.7709 241.888 14.915 248.128 18.3925C254.331 21.8747 259.365 26.6528 263.419 32.3971C267.865 39.1224 271.027 46.2415 273.196 53.6409C275.366 61.0403 276.574 68.6775 277.15 76.4341C278.217 85.0445 277.802 93.6923 277.077 102.303C275.532 120.264 274.856 134.598 282.156 151.385C284.974 157.899 287.559 167.652 292.866 172.471C298.685 177.721 307.452 180.989 313.824 185.787C326.985 195.672 337.727 208.388 343.484 223.846C352.72 248.597 347.142 275.822 333.823 298.272C322.536 317.253 302.73 330.146 280.29 331.421C268.259 332.125 256.457 328.673 244.583 327.332C227.06 325.341 204.984 323.208 187.911 329.18C174.885 333.716 164.716 345.067 153.13 352.207C149.709 354.365 146.232 356.377 142.646 358.136Z" fill="#003260"/>
<path d="M280.626 325.567C278.278 361.16 299.204 387.57 299.987 409.828C300.679 429.822 295.15 452.776 281.7 464.423C249.81 491.943 228.398 438.866 195.608 445.198C166.376 450.835 134.289 482.356 102.735 448.884C91.4156 436.86 85.9937 415.993 75.0122 402.496C61.8573 386.367 43.0214 377.369 36.3477 355.756C21.694 308.341 61.9821 303.625 84.5761 285.168C106.633 267.128 94.8843 211.699 123.464 207.314C136.29 205.339 160.536 224.251 174.022 228.56C202.784 237.741 218.992 230.681 239.768 239.629C269.042 252.194 283.945 275.221 280.626 325.567Z" fill="#0AC7C7"/>
</svg>
