<svg width="409" height="571" viewBox="0 0 409 571" fill="none" xmlns="http://www.w3.org/2000/svg">
<path d="M228.883 209.984C250.062 215.295 270.58 224.158 287.553 237.511C293.147 241.874 298.035 246.903 302.079 252.76C313.031 268.453 320.764 287.439 319.753 305.925C319.544 310.577 318.695 315.164 317.207 319.687C314.626 328.104 310.385 335.861 304.967 343.042C302.249 346.561 299.376 350.099 296.156 353.392C280.4 368.8 262.011 382.079 249.132 400.309C246.587 403.951 244.216 407.716 242.208 411.87C228.285 438.181 230.092 467.881 233.725 495.763C234.492 503.184 233.151 510.146 230.512 516.836C227.874 523.525 223.921 529.801 219.605 535.688C216.904 539.349 213.685 542.642 210.119 545.688C204.848 550.248 198.986 553.87 192.552 556.696C186.1 559.38 179.213 561.105 172.028 561.712C141.728 566.789 114.032 549.713 101.873 524.339C83.709 484.969 101.493 445.31 106.045 405.855C106.943 400.394 105.975 395.166 104.662 389.691C103.592 384.909 102.074 380.328 100.245 375.785C98.4167 371.243 96.2948 366.881 93.8799 362.7C91.4295 358.235 88.979 353.77 86.3555 349.182C78.0675 334.602 74.1622 318.464 74.5595 302.657C74.6978 297.435 75.4578 292.136 76.5641 287.083C89.594 235.873 150.186 196.517 206.461 204.827C213.876 206.072 221.344 207.743 228.883 209.984Z" fill="#09C6C6"/>
<path d="M237.684 370.602C220.396 377.944 202.119 379.873 184.963 376.168C177.068 374.502 169.437 371.644 162.23 367.794C142.452 357.211 128.566 337.817 126.02 317.162C125.657 313.86 125.481 310.409 125.569 306.909C126.148 292.237 131.57 279.231 136.794 266.547C137.971 263.643 139.042 260.987 140.206 258.256C145.482 244.877 149.85 226.186 141.026 213.67C136.229 206.742 127.933 202.296 119.053 197.501C111.261 193.303 103.217 188.98 96.205 182.523C88.2901 175.321 82.2291 165.488 79.0987 154.936C76.9538 147.512 76.1481 139.667 77.0411 132.419C79.0214 114.173 90.4892 98.4377 106.796 91.3933L107.34 91.1204C114.539 88.1192 122.496 86.6326 131.476 86.6111C141.584 86.6644 151.827 88.406 161.632 90.1722C175.829 92.6599 189.335 95.0481 201.164 91.9245C203.299 91.3543 205.539 90.5359 208.058 89.4941C211.664 87.9066 215.284 86.1453 219.101 84.0614C223.091 82.0024 227.082 79.9434 231.404 78.1079C236.627 75.8755 241.441 74.4622 246.109 73.8185C248.669 73.3974 251.295 73.2494 253.815 73.3497C275.491 73.7548 296.776 90.9666 305.508 115.15C307.238 119.966 308.518 124.982 309.347 130.195C312.087 147.102 309.879 163.734 307.547 176.221C306.77 180.763 305.821 185.281 304.871 189.799C303.316 197.743 301.707 205.239 300.788 212.835C299.986 218.868 299.674 224.18 299.654 229.096C299.649 236.121 300.507 243.271 301.339 250.769C302.278 259.16 303.204 267.725 303.149 276.588C302.706 314.992 276.462 353.362 239.129 369.932C238.851 370.155 238.307 370.428 237.684 370.602Z" fill="#FF9040"/>
</svg>
