<svg width="332" height="767" viewBox="0 0 332 767" fill="none" xmlns="http://www.w3.org/2000/svg">
<path d="M257.549 380.381C278.625 387.202 296.575 400.164 309.327 417.771C315.224 425.835 319.997 434.86 323.651 444.519C333.664 471.042 331.807 501.461 318.766 523.902C316.641 527.453 314.238 530.999 311.558 534.379C300.137 548.378 285.577 556.794 271.435 565.054C268.214 566.961 265.273 568.709 262.193 570.455C247.488 579.357 229.658 594.239 228.336 613.757C227.525 624.491 231.72 635.624 236.183 647.575C240.106 658.052 244.165 668.857 245.706 680.928C247.509 694.468 245.682 709.095 240.674 722.047C237.098 731.112 231.999 739.504 225.808 745.926C210.329 762.144 188.417 768.337 168.309 762.019L167.615 761.846C158.88 758.951 150.585 753.945 142.454 746.662C133.359 738.389 125.396 728.341 117.847 718.624C106.866 704.624 96.4337 691.284 83.4242 684.744C81.0714 683.57 78.4385 682.555 75.3883 681.533C70.9504 680.166 66.3716 678.959 61.3737 677.91C56.2384 676.695 51.1031 675.48 45.8339 673.775C39.4552 671.728 34.0556 669.207 29.3586 666.045C26.7327 664.378 24.2495 662.388 22.0462 660.239C2.75912 642.211 -3.69198 607.925 6.37922 576.975C8.39311 570.817 10.9617 564.831 14.0851 559.015C24.1665 540.113 38.5154 525.506 49.8974 515.09C53.9737 511.242 58.1874 507.558 62.4011 503.875C69.7068 497.306 76.7291 491.222 83.2018 484.478C88.4068 479.182 92.6344 474.196 96.3038 469.365C101.526 462.44 106.062 454.692 110.879 446.621C116.263 437.582 121.788 428.382 128.421 419.687C157.347 382.174 209.562 365.678 255.608 379.702C256.161 380.036 256.855 380.209 257.549 380.381Z" fill="#003260"/>
<path d="M164.781 2.58061C131.316 -3.27145 97.2314 12.9906 73.9361 41.4774C38.7932 84.9868 58.6655 125.724 87.9528 163.918C120.049 208.186 134.026 244.815 120.182 303.161C108.962 349.031 82.3296 402.944 100.205 451.251C115.993 497.739 166.143 519.924 206.247 514.029C254.805 506.024 274.074 459.824 264.493 406.276C255.631 357.207 223.97 308.029 228.737 256.478C230.824 222.542 253.65 202.093 267.931 174.592C305.882 101.403 247.973 16.5335 164.781 2.58061Z" fill="#02827B"/>
</svg>
