<svg width="482" height="545" viewBox="0 0 482 545" fill="none" xmlns="http://www.w3.org/2000/svg">
<path d="M424.445 330.828C428.113 360.174 421.784 389.066 406.395 412.138C406.023 412.756 405.517 413.429 405.145 414.047C386.907 440.457 361.704 452.409 337.249 463.901C332.278 466.232 327.173 468.618 322.177 471.271C314.695 475.089 308.605 478.498 303.157 481.957C299.686 484.146 296.402 486.414 293.198 488.494C272.988 502 255.634 513.722 226.083 514.203C208.454 514.512 191.393 510.853 176.697 503.429C173.017 501.654 169.495 499.503 166.241 497.243C145.236 482.726 131.258 459.437 127.983 433.357C126.053 418.255 127.899 402.866 133.13 388.904C134.186 386.139 135.377 383.319 136.756 380.579C143.41 367.441 152.621 356.379 161.62 345.559C164.414 342.087 167.476 338.507 170.271 335.036C178.175 324.972 188.865 309.883 189.266 294.769C189.283 292.893 189.166 291.072 188.994 289.117C188.071 281.861 185.243 274.132 179.561 263.981C178.83 262.565 178.02 261.337 177.289 259.921C176.153 257.89 174.883 255.915 173.801 254.018C167.041 242.747 160.119 231.075 156.723 217.348C156.067 214.967 155.679 212.477 155.29 209.988C153.64 197.108 155.983 184.476 161.878 174.45C164.134 170.419 167.062 166.893 170.421 163.659C176.286 158.162 183.446 154.318 189.591 151.043C196.271 147.551 202.549 144.221 205.419 139.785C207.546 136.585 208.272 132.24 207.546 126.618C207.266 124.395 206.743 121.96 206.033 119.445C205.323 116.93 204.425 114.336 203.472 111.608C201.375 105.296 199.224 98.8499 198.301 91.5937C198.05 89.8266 197.987 88.1389 197.925 86.4512C197.578 76.7804 200.285 66.9591 205.703 58.0611C216.644 39.7554 237.606 26.567 259.191 24.4949C275.955 22.8238 292.803 26.7255 307.884 35.8615C318.958 42.4201 328.466 51.6397 335.355 62.0792C343.568 74.6282 348.953 89.4164 351.025 106.018C351.89 112.363 352.22 118.926 352.015 125.706C351.961 130.556 351.56 135.703 351.05 140.582C350.486 145.328 349.734 149.994 349.116 154.606C347.328 165.923 345.724 176.542 347.036 186.288C347.149 187.332 347.261 188.377 347.508 189.367C350.674 205.212 362.43 218.813 374.833 233.242C377.745 236.576 380.765 240.177 383.731 243.644C391.067 252.5 397.412 261.603 402.793 270.631C413.095 287.938 419.996 305.692 423.225 323.225C423.722 325.982 424.111 328.472 424.445 330.828Z" fill="#02827B"/>
<path d="M145.584 525.304C125.784 520.004 108.884 508.404 98.0838 492.504C97.7838 492.104 97.4838 491.604 97.1838 491.204C84.9838 472.604 83.8838 453.304 82.8838 434.604C82.6838 430.804 82.4838 426.904 82.0838 423.004C81.5838 417.204 80.9838 412.404 80.1838 408.004C79.6838 405.204 79.0838 402.504 78.5838 399.904C75.1838 383.404 72.1838 369.204 79.5838 350.104C83.9838 338.704 90.7838 328.704 99.3838 321.204C101.484 319.304 103.784 317.604 106.084 316.104C120.884 306.404 139.484 303.504 157.084 308.204C167.284 310.904 176.684 316.104 184.284 323.104C185.784 324.504 187.284 326.004 188.684 327.604C195.384 335.304 200.084 344.104 204.684 352.704C206.184 355.404 207.684 358.304 209.184 361.004C213.584 368.704 220.484 379.504 230.084 383.704C231.284 384.204 232.484 384.604 233.784 385.004C238.684 386.304 244.384 386.504 252.384 385.504C253.484 385.404 254.484 385.204 255.584 385.104C257.184 384.904 258.784 384.604 260.284 384.404C269.284 383.004 278.584 381.604 288.284 383.004C289.984 383.204 291.684 383.604 293.384 384.004C302.084 386.304 309.584 391.104 314.484 397.504C316.484 400.004 317.984 402.804 319.184 405.804C321.184 411.004 321.784 416.604 322.284 421.404C322.784 426.604 323.284 431.504 325.384 434.504C326.884 436.704 329.484 438.304 333.284 439.304C334.784 439.704 336.484 440.004 338.284 440.204C340.084 440.404 341.984 440.504 343.984 440.604C348.584 440.904 353.284 441.204 358.184 442.504C359.384 442.804 360.484 443.204 361.584 443.604C367.884 445.904 373.484 450.204 377.784 456.004C386.684 467.804 389.684 484.704 385.384 499.104C382.084 510.304 375.184 520.104 365.384 527.404C358.284 532.804 349.884 536.504 341.384 538.204C331.184 540.204 320.284 539.804 309.084 536.804C304.784 535.704 300.484 534.204 296.184 532.304C293.084 531.004 289.884 529.404 286.884 527.804C283.984 526.204 281.184 524.504 278.384 522.904C271.584 518.804 265.184 515.004 258.584 513.304C257.884 513.104 257.184 512.904 256.484 512.804C245.484 510.704 233.684 514.704 221.184 518.904C218.284 519.904 215.184 520.904 212.184 521.904C204.584 524.304 197.084 526.004 189.884 527.104C176.084 529.204 162.884 529.004 150.784 526.504C148.884 526.104 147.184 525.704 145.584 525.304Z" fill="#09C6C6"/>
</svg>
