<svg width="172" height="460" viewBox="0 0 172 460" fill="none" xmlns="http://www.w3.org/2000/svg">
<path d="M-81.8142 329.612C-102.962 324.038 -121.049 313.17 -133.989 298.261C-139.971 291.433 -144.841 283.77 -148.598 275.549C-158.893 252.976 -157.363 226.92 -144.563 207.552C-142.476 204.487 -140.11 201.421 -137.467 198.495C-126.197 186.373 -111.728 178.988 -97.6753 171.742C-94.4752 170.07 -91.5535 168.538 -88.4926 167.005C-73.8837 159.202 -56.2139 146.244 -55.1009 129.523C-54.4052 120.327 -58.7183 110.852 -63.3097 100.68C-67.3445 91.7628 -71.5185 82.5665 -73.188 72.2555C-75.1359 60.6905 -73.4663 48.1502 -68.5967 37.0032C-65.1184 29.2003 -60.1096 21.9547 -53.9878 16.3812C-38.6833 2.30813 -16.8396 -3.26536 3.33453 1.89012L4.0302 2.02946C12.7955 4.3982 21.1434 8.57832 29.3522 14.7092C38.5349 21.676 46.6046 30.1756 54.2568 38.3965C65.3874 50.2402 75.9614 61.5265 89.0398 66.9607C91.4051 67.9361 94.0486 68.7721 97.1095 69.6081C101.562 70.7228 106.153 71.6982 111.162 72.5342C116.31 73.5096 121.458 74.4849 126.745 75.8783C133.145 77.5504 138.571 79.6404 143.301 82.2878C145.945 83.6812 148.449 85.3532 150.675 87.1646C170.154 102.352 176.971 131.613 167.232 158.227C165.284 163.522 162.78 168.677 159.719 173.693C149.84 189.996 135.649 202.675 124.379 211.732C120.344 215.076 116.171 218.281 111.997 221.486C104.762 227.199 97.8051 232.494 91.405 238.346C86.2572 242.944 82.0832 247.263 78.4658 251.443C73.3179 257.435 68.8657 264.123 64.1352 271.09C58.8482 278.893 53.422 286.835 46.8828 294.359C18.3608 326.825 -33.6746 341.595 -79.8664 330.169C-80.4229 329.89 -81.1186 329.751 -81.8142 329.612Z" fill="#003260"/>
<path d="M-74.9828 432.427C-106.483 415.692 -139.151 423.949 -159.774 415.537C-178.294 407.971 -196.963 393.516 -202.071 376.474C-214.096 336.103 -156.906 338.336 -149.237 305.834C-142.393 276.861 -157.986 234.67 -114.52 219.614C-98.912 214.22 -77.6564 217.831 -60.8436 213.349C-40.7388 207.964 -24.8085 194.473 -2.36015 197.248C46.8951 203.324 34.6771 242.003 42.2477 270.178C49.6583 297.693 105.031 309.703 97.3116 337.568C93.8544 350.076 66.6641 364.436 57.2041 374.97C37.0379 397.439 36.8311 415.116 20.1522 430.397C-3.31119 451.945 -30.4241 456.096 -74.9828 432.427Z" fill="#FF9240"/>
</svg>
