<svg width="387" height="476" viewBox="0 0 387 476" fill="none" xmlns="http://www.w3.org/2000/svg">
<path d="M168.493 162.316C188.693 157.616 212.493 179.716 229.093 173.816C254.893 164.716 242.093 125.716 244.693 99.716C246.493 81.816 251.193 69.416 202.793 40.916C181.893 28.616 176.893 24.916 160.793 11.516C131.393 -12.884 109.293 3.31596 114.193 42.916C115.193 50.616 116.193 58.516 117.593 65.416C120.893 82.116 114.593 99.516 101.393 110.116C99.3929 111.716 59.5929 132.716 66.8929 153.016C70.4929 163.016 90.5929 160.716 96.2929 173.816C104.993 193.616 119.193 198.216 129.293 191.716C143.293 182.716 147.693 167.116 168.493 162.316Z" fill="#FF9040"/>
<path d="M282.026 413.562C264.981 423.177 246.175 430.075 226.902 431.867C220.574 432.483 214.293 432.23 208.051 430.918C191.248 427.473 174.507 419.902 163.758 407.262C161.024 404.109 158.745 400.603 156.922 396.745C153.406 389.681 151.377 382.021 150.469 374.01C150.064 370.046 149.749 365.973 149.81 361.846C150.545 342.108 154.306 322.13 151.43 302.332C150.837 298.395 150.056 294.484 148.798 290.545C141.615 264.85 122.115 246.659 102.55 230.775C97.472 226.424 94.0488 221.071 91.6363 215.094C89.2238 209.117 87.9214 202.599 87.0953 196.109C86.5914 192.063 86.6528 187.936 87.091 183.755C87.7039 177.538 89.2796 171.567 91.7187 165.76C94.2572 160.035 97.6694 154.664 101.966 149.837C118.53 127.84 147.07 121.852 170.63 130.845C206.73 145.231 219.639 181.984 241.024 210.441C243.81 214.545 247.665 217.347 251.896 220.095C255.542 222.544 259.356 224.585 263.347 226.41C267.339 228.235 271.41 229.761 275.559 230.988C279.907 232.379 284.255 233.77 288.791 235.134C303.175 239.498 315.671 247.579 325.166 258.1C328.298 261.579 331.073 265.493 333.472 269.461C356.598 310.79 341.493 373.76 299.783 403.079C294.195 406.846 288.309 410.367 282.026 413.562Z" fill="#003260"/>
</svg>
