<svg viewBox="0 0 77.33 421.47" xmlns="http://www.w3.org/2000/svg" xmlns:xlink="http://www.w3.org/1999/xlink"><linearGradient id="a" gradientUnits="userSpaceOnUse" x1="57.08" x2="77.33" y1="212.49" y2="212.49"><stop offset="0" stop-color="#ef3a24"/><stop offset=".39" stop-color="#e58f8f"/></linearGradient><g stroke-linecap="round" stroke-linejoin="round" stroke-width="4"><g fill="none"><path d="m63.29 149.01v-2" stroke="#ef3a24"/><path d="m63.29 137.89v-127.07" stroke="#ef3a24" stroke-dasharray="4.05 9.11"/><path d="m63.29 6.26v-2" stroke="#ef3a24"/><path d="m63.38 408.84v-2" stroke="#e58f8f"/><path d="m63.38 397.77v-126.53" stroke="#e58f8f" stroke-dasharray="4.03 9.07"/><path d="m63.38 266.7v-2" stroke="#e58f8f"/><path d="m12.22 266.76v152.71" stroke="#2b328f"/><path d="m12.22 4.26v153.36" stroke="#ef3a24"/><path d="m59.08 241.4a36.67 36.67 0 0 0 4-57.82" stroke="url(#a)"/><path d="m12.93 237.05c6.46 6 15.13 10.49 24.69 10.59a32 32 0 0 0 17.31-4.15" stroke="#e58f8f" stroke-dasharray="4 9"/><path d="m13.83 184a36.65 36.65 0 0 0 .05 54" stroke="#e58f8f"/><path d="m63.07 183.58a36.51 36.51 0 0 0 -24.41-9.31 33 33 0 0 0 -23.53 9.31" stroke="#e58f8f" stroke-dasharray="4 9"/></g><path d="m12.22 2 3.32 5.74 3.31 5.74h-6.63-6.62l3.31-5.74z" fill="#ef3a24" stroke="#ef3a24"/><path d="m12.22 261.02 3.32 5.74 3.31 5.74h-6.63-6.62l3.31-5.74z" fill="#2b328f" stroke="#2b328f"/><path d="m63.29 157.62-3.31-5.74-3.32-5.74h6.63 6.62l-3.31 5.74z" fill="#ef3a24" stroke="#ef3a24"/><path d="m16.35 181.67-6.37 1.85-6.36 1.84 4.78 4.59 4.78 4.59 1.58-6.44z" fill="#e58f8f" stroke="#e58f8f"/><path d="m59.08 241.4 6.45-1.51 6.45-1.52-4.54-4.83-4.53-4.83-1.92 6.35z" fill="#e58f8f" stroke="#e58f8f"/><path d="m63.29 419.47-3.31-5.74-3.32-5.73h6.63 6.62l-3.31 5.73z" fill="#ea8686" stroke="#e58f8f"/></g></svg>