<svg width="479" height="476" viewBox="0 0 479 476" fill="none" xmlns="http://www.w3.org/2000/svg">
<path d="M272.769 414.33C267.203 421.206 260.863 427.326 252.681 431.813C229.905 444.296 200.58 442.486 178.759 433.074C171.784 430.451 165.259 426.74 159.363 422.28C153.303 417.885 148.041 412.762 143.628 407.059C131.956 392.778 124.126 372.892 134.087 353.333C142.864 335.225 157.103 320.865 165.915 302.734C179.277 276.998 175.348 250.684 173.466 224.028C170.516 180.254 154.74 140.009 170.146 95.9462C173.722 87.6764 178.533 79.8482 184.715 72.9647C189.853 67.4365 196.198 62.6894 203.398 59.1938C212.381 54.8936 220.72 52.914 228.485 52.749C236.215 52.6082 243.348 54.2508 249.927 57.2817C257.331 60.9883 263.626 65.7274 269.052 71.2434C274.478 76.7594 279.049 82.9968 283.041 89.6759C287.899 96.8644 291.294 104.869 294.363 113.004C300.73 129.99 306.369 143.253 321.055 154.511C326.739 158.887 333.617 166.301 341.041 167.838C349.167 169.491 359.363 167.803 367.841 168.757C385.341 170.705 401.672 176.481 414.231 187.356C434.36 204.761 440.78 232.218 437.364 259.465C434.451 282.514 420.346 304.582 398.493 317.582C386.785 324.57 373.476 327.695 361.024 332.759C342.644 340.221 319.652 349.961 305.229 364.354C294.216 375.318 289.058 390.908 280.629 403.455C278.163 407.204 275.576 410.853 272.769 414.33Z" fill="#FF9240"/>
</svg>
