<svg width="179" height="441" viewBox="0 0 179 441" fill="none" xmlns="http://www.w3.org/2000/svg">
<path d="M4.54665 95.1203C1.91199 87.6678 0.335619 80.0126 1.13913 71.7973C3.38311 48.9308 21.1518 28.2086 41.0856 16.7219C47.1362 12.8629 53.842 9.86508 60.8238 7.69554C67.8415 5.3743 75.0228 3.99619 82.2159 3.52542C100.572 1.88987 121.462 5.81768 132.213 22.6939C142.413 37.9892 146.465 55.481 156.666 70.8141C170.671 93.2065 194.745 103.143 217.97 114.754C256.031 133.925 298.269 141.926 326.389 174.761C331.287 181.428 335.133 188.79 337.433 196.7C339.184 203.181 339.615 210.171 338.53 217.179C337.127 225.894 334.15 233.003 329.981 238.804C325.811 244.567 320.488 249.022 314.318 252.391C307.128 256.037 299.693 258.364 292.094 259.672C284.495 260.98 276.77 261.306 268.998 260.99C260.322 261.064 251.779 259.662 243.307 257.956C225.642 254.365 211.479 252.052 193.967 257.382C187.173 259.436 177.189 260.888 171.793 265.608C165.911 270.788 161.661 279.124 156.166 284.904C144.839 296.847 130.976 306.062 114.962 310.012C89.3161 316.354 62.9088 307.695 42.1308 291.894C24.5667 278.508 14.0258 257.357 15.3281 234.918C16.0066 222.886 20.7864 211.557 23.4781 199.914C27.4625 182.735 32.1088 161.047 28.1303 143.403C25.1151 129.943 15.0031 118.542 9.23643 106.214C7.48443 102.569 5.88344 98.8842 4.54665 95.1203Z" fill="#003260"/>
<path d="M299.626 235.852C297.278 271.444 318.204 297.854 318.987 320.112C319.679 340.107 314.15 363.061 300.7 374.708C268.81 402.228 247.398 349.151 214.608 355.482C185.376 361.119 153.289 392.64 121.735 359.169C110.416 347.145 104.994 326.278 94.0122 312.781C80.8573 296.652 62.0215 287.653 55.3477 266.041C40.694 218.625 80.9821 213.91 103.576 195.452C125.633 177.412 113.884 121.984 142.464 117.599C155.29 115.624 179.536 134.536 193.022 138.845C221.784 148.025 237.992 140.966 258.768 149.913C288.042 162.479 302.945 185.506 299.626 235.852Z" fill="#FF9240"/>
</svg>
