<svg width="457" height="573" viewBox="0 0 457 573" fill="none" xmlns="http://www.w3.org/2000/svg">
<path d="M156.971 66.4909C160.484 59.4099 164.879 52.9472 171.334 47.8022C189.306 33.4869 216.551 31.8054 238.677 38.1098C245.66 39.764 252.482 42.4882 258.901 45.9873C265.454 49.4065 271.445 53.6 276.792 58.4339C290.75 70.4667 302.481 88.193 297.858 107.661C293.986 125.634 284.256 140.724 280.358 158.723C274.043 184.368 283.679 208.564 291.522 233.317C304.274 273.981 327.949 309.863 323.971 352.911C322.598 361.069 319.994 368.955 315.919 376.115C312.488 381.885 307.773 387.062 301.988 391.166C294.757 396.228 287.582 399.042 280.516 400.091C273.476 401.113 266.572 400.395 259.857 398.314C252.233 395.694 245.385 391.98 239.154 387.437C232.923 382.895 227.309 377.579 222.123 371.782C216.027 365.608 211.083 358.5 206.407 351.233C196.681 336.056 188.477 324.282 172.456 315.427C166.25 311.982 158.255 305.829 151.11 305.244C143.296 304.631 134.355 307.387 126.38 307.469C109.921 307.659 93.6531 304.129 79.6653 295.388C57.2529 281.402 45.0746 256.421 41.9428 230.506C39.3155 208.579 47.1524 186.284 64.1611 171.591C73.2682 163.698 84.7268 159.238 94.9561 153.061C110.059 143.955 128.858 132.185 138.748 117.041C146.307 105.504 147.446 90.3064 152.276 77.5826C153.672 73.7868 155.201 70.0716 156.971 66.4909Z" fill="#003260"/>
<path d="M297.606 367.418C295.259 403.01 316.184 429.42 316.968 451.678C317.66 471.673 312.131 494.627 298.681 506.273C266.79 533.794 245.378 480.716 212.589 487.048C183.357 492.685 151.27 524.206 119.715 490.735C108.396 478.711 102.974 457.844 91.9929 444.347C78.838 428.217 60.0022 419.219 53.3284 397.607C38.6747 350.191 78.9628 345.476 101.557 327.018C123.614 308.978 111.865 253.55 140.445 249.165C153.271 247.19 177.516 266.102 191.003 270.411C219.765 279.591 235.973 272.532 256.748 281.479C286.023 294.044 300.925 317.072 297.606 367.418Z" fill="#02827B"/>
</svg>
