<svg width="42" height="59" viewBox="0 0 42 59" fill="none" xmlns="http://www.w3.org/2000/svg">
<g clip-path="url(#clip0_1788_120)">
<path d="M8.75366 0C9.45512 0.303008 10.0981 0.678161 10.3904 1.4429C10.7411 2.35192 10.5512 3.15994 9.92276 3.91025C9.08978 4.92027 8.24218 5.91587 7.45303 6.96919C5.15867 10.0714 4.45721 13.5921 4.72026 17.3725C4.96869 21.0518 6.62005 24.0675 8.98748 26.809C10.2881 28.3096 11.5741 29.8391 12.7578 31.4118C15.4029 34.9325 16.4697 38.9293 16.4843 43.2869C16.4843 48.6256 14.453 53.1274 10.9603 57.0809C10.595 57.485 10.2735 57.9178 9.87892 58.293C9.00209 59.1587 7.68686 59.202 6.75157 58.4517C5.81629 57.687 5.62631 56.3306 6.357 55.3495C6.94155 54.5703 7.61379 53.8344 8.22756 53.0697C12.0125 48.4091 12.6555 43.2003 10.8727 37.6163C10.3173 35.8992 9.29437 34.4131 8.1545 33.0135C6.54698 31.0367 4.85178 29.1321 3.36118 27.0687C0.613787 23.2595 -0.248426 18.9164 0.058463 14.2991C0.233828 11.7452 0.818379 9.29225 2.0021 7.01247C3.18581 4.67498 4.80794 2.6405 6.59082 0.721448C6.89771 0.389582 7.40919 0.230863 7.81838 0C8.12527 0 8.43216 0 8.75366 0Z" fill="#02827B"/>
<path d="M34.1816 0C35.6138 0.562729 36.2276 1.34189 36.0376 2.5395C35.9645 3.04451 35.6722 3.54952 35.3653 3.96796C34.4301 5.23771 33.3486 6.42089 32.4718 7.71949C30.8058 10.2013 30.1921 13.0005 30.1775 15.9729C30.1628 19.7388 31.405 23.0286 33.7871 25.9433C35.4092 27.9056 37.0898 29.8247 38.5804 31.888C41.357 35.7117 42.2046 40.0692 41.9269 44.7153C41.6493 49.2893 39.7787 53.1851 36.8413 56.6337C36.4175 57.1387 36.0083 57.6437 35.5553 58.1343C34.6347 59.1443 33.261 59.2742 32.2672 58.4661C31.2443 57.6293 31.1273 56.2585 31.9896 55.1763C32.8372 54.1086 33.7432 53.0697 34.5616 51.9731C36.8267 48.8997 37.5136 45.4079 37.2651 41.6708C37.0167 37.977 35.3653 34.9325 32.9979 32.1766C31.6973 30.676 30.4259 29.1465 29.2276 27.5737C26.5825 24.0531 25.5157 20.0562 25.5157 15.6987C25.5157 10.3311 27.5616 5.81487 31.0835 1.86134C31.7265 1.13989 32.2672 0.346295 33.2463 0.014429C33.5678 0 33.8747 0 34.1816 0Z" fill="#02827B"/>
<path d="M21.4676 -0.000438958C21.8768 0.244853 22.3445 0.418001 22.6806 0.749867C23.572 1.6156 23.5428 2.87092 22.6806 3.92424C21.8914 4.87655 21.0585 5.8 20.357 6.7956C16.8058 11.8602 16.4843 17.2422 19.0125 22.7685C19.714 24.3124 20.9269 25.6398 21.9645 27.025C23.4113 28.9441 25.0188 30.7621 26.3779 32.7389C28.0292 35.1196 28.833 37.8467 29.1107 40.7181C29.476 44.6283 29.0522 48.4231 27.2401 51.9727C26.071 54.2957 24.4489 56.3158 22.7098 58.2204C21.8476 59.1727 20.4739 59.216 19.5094 58.4224C18.5595 57.6288 18.3841 56.2869 19.1733 55.2625C19.9478 54.2524 20.8246 53.3146 21.5699 52.2901C24.9165 47.7594 25.3257 42.7814 23.6451 37.5726C22.9436 35.4227 21.5115 33.6768 20.0793 31.9453C18.5449 30.0695 16.9812 28.1937 15.6075 26.2025C13.9562 23.8218 13.1524 21.0803 12.8894 18.2233C12.524 14.3275 12.9478 10.5616 14.7453 7.01203C15.929 4.67454 17.5512 2.64006 19.3194 0.721009C19.6263 0.389143 20.1232 0.215995 20.5324 -0.0292969C20.8539 -0.000438958 21.1608 -0.000438958 21.4676 -0.000438958Z" fill="#02827B"/>
</g>
<defs>
<clipPath id="clip0_1788_120">
<rect width="42" height="59" fill="white"/>
</clipPath>
</defs>
</svg>
