<svg width="30" height="59" viewBox="0 0 30 59" fill="none" xmlns="http://www.w3.org/2000/svg">
<g clip-path="url(#clip0_1626_174)">
<path d="M16.3125 59.0008C17.0937 58.8469 17.8906 58.7391 18.6562 58.5544C25.6875 56.8305 30.4375 50.4579 29.9687 43.3311C29.75 39.8832 28.4218 36.8662 26.0625 34.2956C25.8593 34.0647 25.7187 33.6953 25.7187 33.3875C25.7031 25.8297 25.7187 18.2565 25.7031 10.6987C25.6875 6.00394 22.875 2.06343 18.5312 0.585733C11.7656 -1.70777 4.70308 3.00238 4.35933 10.0368C4.3437 10.4062 4.3437 10.7603 4.3437 11.1297C4.3437 18.5028 4.3437 25.8758 4.3437 33.2489C4.3437 33.7261 4.2187 34.0647 3.89058 34.4188C0.124952 38.7749 -1.00005 43.7467 0.937454 49.1341C2.8437 54.4754 6.82808 57.6617 12.4843 58.7699C12.9062 58.8469 13.3281 58.9239 13.75 58.9854C14.5937 59.0008 15.4531 59.0008 16.3125 59.0008ZM21.4375 22.5356C21.4375 26.4916 21.4531 30.4475 21.4218 34.4034C21.4062 35.3731 21.7343 36.0812 22.4375 36.7277C25.5312 39.6215 26.5312 44.1007 25.0156 48.0105C23.4687 51.9818 19.7343 54.6139 15.4375 54.7678C10.9687 54.9218 6.89058 52.3666 5.1562 48.3183C3.43745 44.2854 4.42183 39.6523 7.67183 36.6353C8.31245 36.035 8.60933 35.3731 8.5937 34.5111C8.57808 27.646 8.57808 20.7655 8.57808 13.9004C8.57808 12.7151 8.54683 11.5145 8.5937 10.3293C8.74995 6.35798 12.5156 3.52573 16.4218 4.40311C19.375 5.08039 21.4062 7.58939 21.4218 10.6833C21.4531 14.6238 21.4375 18.5797 21.4375 22.5356Z" fill="#02827B"/>
<path d="M12.8906 31.5395C12.8906 33.6329 12.875 35.7263 12.9062 37.8197C12.9062 38.1891 12.7969 38.3584 12.4531 38.497C9.64062 39.7438 8.10938 42.6684 8.75 45.5776C9.375 48.456 11.9531 50.5494 14.875 50.5802C17.9687 50.611 20.5781 48.6099 21.2812 45.6392C21.9531 42.7761 20.4687 39.7745 17.7031 38.5431C17.2344 38.343 17.1406 38.0968 17.1406 37.6504C17.1562 33.5559 17.1562 29.4769 17.1406 25.3824C17.1406 23.8278 15.7656 22.8272 14.3281 23.289C13.4375 23.5815 12.8906 24.3357 12.8906 25.367C12.8906 27.4296 12.8906 29.4769 12.8906 31.5395Z" fill="#02827B"/>
</g>
<defs>
<clipPath id="clip0_1626_174">
<rect width="30" height="59" fill="white" transform="matrix(-1 0 0 1 30 0)"/>
</clipPath>
</defs>
</svg>
