<svg width="49" height="50" viewBox="0 0 49 50" fill="none" xmlns="http://www.w3.org/2000/svg">
<path d="M6.53335 12.6805C9.94705 12.6805 12.7144 9.91311 12.7144 6.49941C12.7144 3.08571 9.94705 0.318359 6.53335 0.318359C3.11965 0.318359 0.352295 3.08571 0.352295 6.49941C0.352295 9.91311 3.11965 12.6805 6.53335 12.6805Z" fill="#02827B"/>
<path d="M24.6762 12.6805C28.0899 12.6805 30.8572 9.91311 30.8572 6.49941C30.8572 3.08571 28.0899 0.318359 24.6762 0.318359C21.2625 0.318359 18.4951 3.08571 18.4951 6.49941C18.4951 9.91311 21.2625 12.6805 24.6762 12.6805Z" fill="#02827B"/>
<path d="M42.8189 12.6805C46.2326 12.6805 49 9.91311 49 6.49941C49 3.08571 46.2326 0.318359 42.8189 0.318359C39.4052 0.318359 36.6379 3.08571 36.6379 6.49941C36.6379 9.91311 39.4052 12.6805 42.8189 12.6805Z" fill="#02827B"/>
<path d="M6.53335 31.0047C9.94705 31.0047 12.7144 28.2373 12.7144 24.8236C12.7144 21.4099 9.94705 18.6426 6.53335 18.6426C3.11965 18.6426 0.352295 21.4099 0.352295 24.8236C0.352295 28.2373 3.11965 31.0047 6.53335 31.0047Z" fill="#02827B"/>
<path d="M24.6762 31.0047C28.0899 31.0047 30.8572 28.2373 30.8572 24.8236C30.8572 21.4099 28.0899 18.6426 24.6762 18.6426C21.2625 18.6426 18.4951 21.4099 18.4951 24.8236C18.4951 28.2373 21.2625 31.0047 24.6762 31.0047Z" fill="#02827B"/>
<path d="M42.8189 31.0047C46.2326 31.0047 49 28.2373 49 24.8236C49 21.4099 46.2326 18.6426 42.8189 18.6426C39.4052 18.6426 36.6379 21.4099 36.6379 24.8236C36.6379 28.2373 39.4052 31.0047 42.8189 31.0047Z" fill="#02827B"/>
<path d="M6.53335 49.3269C9.94705 49.3269 12.7144 46.5596 12.7144 43.1459C12.7144 39.7322 9.94705 36.9648 6.53335 36.9648C3.11965 36.9648 0.352295 39.7322 0.352295 43.1459C0.352295 46.5596 3.11965 49.3269 6.53335 49.3269Z" fill="#02827B"/>
<path d="M24.6762 49.3269C28.0899 49.3269 30.8572 46.5596 30.8572 43.1459C30.8572 39.7322 28.0899 36.9648 24.6762 36.9648C21.2625 36.9648 18.4951 39.7322 18.4951 43.1459C18.4951 46.5596 21.2625 49.3269 24.6762 49.3269Z" fill="#02827B"/>
<path d="M42.8189 49.3269C46.2326 49.3269 49 46.5596 49 43.1459C49 39.7322 46.2326 36.9648 42.8189 36.9648C39.4052 36.9648 36.6379 39.7322 36.6379 43.1459C36.6379 46.5596 39.4052 49.3269 42.8189 49.3269Z" fill="#02827B"/>
</svg>
