<svg width="143" height="16" viewBox="0 0 143 16" fill="none" xmlns="http://www.w3.org/2000/svg">
<path d="M1.71875 15.1112C2.05241 14.538 2.3608 14.0003 2.66919 13.4626C3.78645 11.5401 4.90878 9.62267 6.02099 7.70017C6.06143 7.62915 6.04627 7.49219 6.00582 7.42118C5.09583 5.84361 4.18078 4.27112 3.26574 2.69863C2.77535 1.84644 2.27991 0.999321 1.78447 0.147132C1.76931 0.121769 1.75919 0.0862613 1.73392 0.0253906C48.2497 0.0253906 94.7401 0.0253906 141.271 0.0253906C141.059 0.395687 140.867 0.740621 140.664 1.08555C139.436 3.19574 138.212 5.30592 136.979 7.41103C136.913 7.52263 136.903 7.60379 136.974 7.72553C138.384 10.135 139.79 12.5495 141.2 14.9641C141.22 14.9996 141.231 15.0402 141.256 15.1112C94.7502 15.1112 48.2598 15.1112 1.71875 15.1112ZM127.94 7.57843C128.101 7.53785 128.263 7.50741 128.425 7.46176C129.209 7.24871 129.947 6.94436 130.548 6.37116C131.58 5.37694 131.448 3.81966 130.25 3.03342C129.37 2.45514 128.364 2.28775 127.343 2.26746C125.518 2.23703 123.688 2.25732 121.863 2.25732C121.777 2.25732 121.686 2.26746 121.6 2.27253C121.59 2.2979 121.585 2.32326 121.575 2.34862C121.63 2.38413 121.681 2.43993 121.742 2.45007C121.924 2.48051 122.111 2.48558 122.293 2.51602C122.955 2.62254 123.223 2.87109 123.218 3.53053C123.203 5.35157 123.213 7.17262 123.213 8.99367C123.213 9.81035 123.213 10.627 123.208 11.4488C123.208 11.7176 123.132 11.9713 122.874 12.0778C122.616 12.1843 122.333 12.2756 122.06 12.301C120.958 12.4024 120.159 12.0372 119.78 10.9415C119.3 9.55165 118.754 8.18206 118.233 6.80233C117.642 5.23491 117.055 3.66749 116.469 2.10007C116.418 1.96311 116.347 1.90224 116.191 1.91238C115.983 1.9276 115.771 1.9276 115.559 1.90731C115.397 1.89209 115.331 1.97325 115.281 2.10007C114.785 3.36313 114.29 4.6262 113.789 5.88927C113.198 7.38567 112.616 8.88207 112 10.3683C111.626 11.2712 111.125 12.0829 110.068 12.3263C110.018 12.3365 109.988 12.4278 109.922 12.5242C111.165 12.5242 112.343 12.5242 113.521 12.5242C113.537 12.5039 113.552 12.4887 113.567 12.4684C113.511 12.4176 113.466 12.3416 113.4 12.3162C113.274 12.2705 113.142 12.2604 113.011 12.23C112.465 12.1031 112.202 11.7126 112.268 11.1495C112.359 10.3278 112.728 9.5973 113.021 8.84149C113.046 8.78062 113.178 8.72482 113.258 8.72482C114.219 8.71468 115.18 8.71975 116.14 8.70961C116.706 8.70453 116.716 8.68932 116.914 9.22194C117.187 9.95746 117.465 10.698 117.707 11.4488C117.849 11.8952 117.677 12.1336 117.217 12.2198C116.964 12.2655 116.701 12.2858 116.443 12.3314C116.383 12.3416 116.327 12.4075 116.272 12.4532C116.287 12.4734 116.302 12.4988 116.312 12.5191C119.846 12.5191 123.38 12.5191 126.913 12.5191C126.929 12.4988 126.944 12.4785 126.959 12.4582C126.898 12.4176 126.848 12.3466 126.782 12.3365C126.524 12.2908 126.266 12.2756 126.014 12.2249C125.614 12.1437 125.377 11.8597 125.377 11.4944C125.377 10.3125 125.377 9.1357 125.377 7.9538C125.377 7.86249 125.377 7.77626 125.377 7.69002C126.196 7.62915 126.499 7.74582 126.994 8.34438C127.217 8.6183 127.419 8.90744 127.616 9.20164C128.339 10.2821 129.001 11.4082 129.916 12.3466C130.007 12.443 130.169 12.5191 130.296 12.5242C131.013 12.5394 131.726 12.5343 132.444 12.5343C132.864 12.5343 133.283 12.5343 133.703 12.5343C133.718 12.509 133.728 12.4785 133.743 12.4532C133.688 12.4126 133.632 12.3466 133.572 12.3365C132.975 12.2705 132.429 12.0626 132.035 11.6162C131.448 10.9567 130.897 10.2669 130.361 9.57194C129.699 8.71468 129.077 7.85234 127.94 7.57843ZM31.9507 2.25732C31.9355 2.28268 31.9254 2.30804 31.9103 2.3334C31.9659 2.37398 32.0164 2.43993 32.072 2.45007C32.2641 2.48051 32.4562 2.48051 32.6484 2.51602C33.3106 2.64283 33.5432 2.86095 33.5432 3.34791C33.5482 6.03637 33.5482 8.72482 33.5482 11.4133C33.5482 11.7379 33.4269 12.022 33.0932 12.1234C32.7697 12.2198 32.4259 12.2553 32.0923 12.3314C32.0265 12.3466 31.976 12.4075 31.9153 12.4481C31.9305 12.4734 31.9406 12.5039 31.9558 12.5292C32.0366 12.5292 32.1226 12.5292 32.2035 12.5292C33.5179 12.5292 34.8323 12.5292 36.1468 12.5292C36.4754 12.5292 36.804 12.5343 37.1326 12.5242C37.1832 12.5242 37.2337 12.4734 37.2843 12.443C37.2337 12.4075 37.1882 12.3466 37.1326 12.3365C36.9759 12.306 36.8141 12.301 36.6574 12.2858C35.9294 12.1995 35.7069 11.951 35.7069 11.2307C35.7069 10.1451 35.7069 9.05454 35.712 7.96901C35.712 7.87771 35.7221 7.79147 35.7272 7.70524C36.3995 7.60886 36.7484 7.71539 37.173 8.18206C37.4208 8.45598 37.6381 8.75526 37.8505 9.05454C38.5229 10.0031 39.2003 10.9517 39.8575 11.9155C40.1912 12.4075 40.6057 12.585 41.2073 12.5445C42.0971 12.4887 42.9919 12.5242 43.8817 12.5292C44.0233 12.5292 44.1143 12.509 44.0334 12.3416C43.3357 12.306 42.7341 12.0524 42.2892 11.535C41.632 10.764 41.0102 9.95746 40.3833 9.16106C39.9536 8.6183 39.5087 8.1009 38.8565 7.81176C38.6745 7.7306 38.4774 7.67481 38.2499 7.59364C38.4167 7.54799 38.5481 7.51248 38.6796 7.48205C39.4076 7.31973 40.0749 7.03566 40.6715 6.57406C41.9606 5.57477 41.8848 3.83995 40.5097 2.98776C39.625 2.43993 38.6341 2.28775 37.623 2.27253C35.9648 2.24717 34.3066 2.26239 32.6484 2.26239C32.4057 2.25732 32.1782 2.25732 31.9507 2.25732ZM42.6684 7.53785C42.7038 7.81684 42.724 8.21757 42.7998 8.61323C43.0678 10.0335 43.7705 11.1901 45.004 11.9611C46.4903 12.8995 48.098 13.0771 49.7511 12.509C51.0302 12.0676 51.9958 11.2256 52.6227 10.0133C53.2293 8.83642 53.3709 7.59364 53.1485 6.29507C52.9361 5.04722 52.3901 3.96677 51.3891 3.19574C49.5793 1.79064 47.5773 1.57759 45.5399 2.5921C43.5885 3.56096 42.7493 5.27549 42.6684 7.53785ZM26.3644 1.94282C25.8942 2.02398 25.419 2.0747 24.9589 2.19137C23.5484 2.5566 22.4817 3.3885 21.774 4.66171C21.0561 5.95014 20.9145 7.33494 21.228 8.76033C21.5869 10.4089 22.5373 11.6213 24.0793 12.3263C24.9893 12.7423 25.9448 12.8945 26.9457 12.7727C28.5888 12.5749 29.8779 11.814 30.7778 10.4292C31.5665 9.21179 31.7889 7.86249 31.5766 6.43203C31.4148 5.3465 30.9902 4.38779 30.2369 3.59647C29.1853 2.5008 27.876 2.00876 26.3644 1.94282ZM75.9488 7.44147C75.9842 7.7864 75.9943 8.13134 76.055 8.46612C76.3027 9.93717 77.0155 11.1292 78.2743 11.951C79.3562 12.6611 80.5594 12.93 81.8486 12.7727C83.6281 12.5546 84.9779 11.6821 85.8576 10.1147C86.3985 9.14585 86.5907 8.09583 86.5199 6.98494C86.4542 5.90956 86.1458 4.93563 85.5088 4.06315C84.2449 2.31819 82.0255 1.67397 80.069 2.12543C77.4604 2.72399 75.969 4.90519 75.9488 7.44147ZM55.6358 4.02256C55.661 4.00227 55.6914 3.98706 55.7166 3.96677C55.7369 4.01242 55.7571 4.06315 55.7874 4.09865C56.7733 5.37186 57.7641 6.64508 58.75 7.91829C59.9532 9.47049 61.1513 11.0278 62.3545 12.5749C62.4152 12.651 62.4961 12.7474 62.577 12.7575C62.8146 12.7829 63.0573 12.7677 63.3151 12.7677C63.3151 12.6256 63.3151 12.5242 63.3151 12.4278C63.3151 9.87122 63.31 7.31973 63.3151 4.76316C63.3151 4.46388 63.3353 4.15952 63.3606 3.86024C63.4212 3.24139 63.7448 2.8153 64.3413 2.61747C64.5385 2.55152 64.7458 2.51602 64.948 2.45007C65.0036 2.42978 65.0441 2.36384 65.0946 2.31819C65.0795 2.30297 65.0643 2.28268 65.0441 2.26746C63.6487 2.26746 62.2534 2.26746 60.8581 2.26746C60.848 2.28775 60.8328 2.30297 60.8227 2.32326C60.8733 2.36384 60.9137 2.42978 60.9693 2.445C61.1109 2.49065 61.2625 2.51094 61.4092 2.54645C62.0512 2.69356 62.5719 3.00298 62.7388 3.68778C62.8095 3.97184 62.85 4.27112 62.85 4.56026C62.8601 6.19362 62.855 7.83205 62.855 9.46542C62.855 9.53643 62.8449 9.60238 62.8348 9.74948C62.4759 9.27773 62.1624 8.86178 61.849 8.45091C60.302 6.44217 58.75 4.43851 57.208 2.42471C57.0968 2.28268 56.9906 2.2421 56.8339 2.2421C55.8329 2.24717 54.8319 2.2421 53.8259 2.24717C53.7147 2.24717 53.6085 2.2421 53.4973 2.25224C53.4518 2.25732 53.4113 2.30297 53.3658 2.32833C53.4113 2.36384 53.4467 2.41964 53.4973 2.43485C53.6085 2.46529 53.7248 2.47544 53.8411 2.49573C54.6904 2.63268 55.1858 3.20081 55.1858 4.04793C55.1858 6.04651 55.1858 8.0451 55.1808 10.0437C55.1808 10.3227 55.1656 10.6017 55.1252 10.8705C55.0392 11.464 54.7409 11.9002 54.1545 12.1031C53.9523 12.1742 53.7349 12.2147 53.5327 12.2858C53.4568 12.3111 53.4012 12.3872 53.3355 12.4379C53.3507 12.4582 53.3658 12.4785 53.381 12.4988C54.7662 12.4988 56.1565 12.4988 57.5417 12.4988C57.5569 12.4734 57.572 12.4481 57.5872 12.4278C57.5114 12.3771 57.4456 12.301 57.3597 12.2756C57.1474 12.2097 56.9199 12.1792 56.7075 12.1082C56.1666 11.9358 55.8329 11.5553 55.7318 10.9973C55.6813 10.7183 55.6459 10.4292 55.6408 10.1451C55.6358 8.45091 55.6408 6.75667 55.6408 5.06244C55.6358 4.72765 55.6358 4.37257 55.6358 4.02256ZM93.4358 12.0981C94.1992 12.3162 94.912 12.5698 95.6451 12.7119C96.6056 12.8945 97.5864 12.8742 98.552 12.6662C99.4316 12.4734 100.23 12.1488 100.857 11.4437C101.651 10.5509 101.697 8.96831 101.024 7.99438C100.579 7.35016 99.9625 6.93928 99.2547 6.67551C98.1779 6.26971 97.0707 5.92985 95.9838 5.5494C95.544 5.39216 95.1092 5.19433 94.8261 4.79359C94.2851 4.03271 94.639 2.96747 95.5591 2.56167C96.8584 1.98847 98.5115 2.43485 99.371 3.5914C99.7603 4.11387 100.038 4.69214 100.261 5.30085C100.321 5.47332 100.402 5.55955 100.615 5.45303C100.594 5.27549 100.569 5.09795 100.554 4.91533C100.483 4.06822 100.417 3.2211 100.342 2.37906C100.337 2.32326 100.291 2.2421 100.256 2.23195C100.21 2.22181 100.129 2.26746 100.099 2.30804C99.9928 2.45007 99.9018 2.59718 99.8007 2.7595C99.74 2.73414 99.6895 2.71385 99.6389 2.68848C98.0464 1.88702 96.3983 1.79571 94.7098 2.30804C94.0779 2.49573 93.5268 2.82544 93.1729 3.40879C92.4854 4.54504 92.8443 6.03637 93.9768 6.83276C94.8008 7.41103 95.7563 7.66466 96.6916 7.97916C97.46 8.23279 98.2385 8.46612 98.9362 8.89729C99.5884 9.29295 99.8917 10.0183 99.7249 10.7589C99.5328 11.6162 98.9261 12.0626 98.1526 12.3314C97.4499 12.5749 96.7269 12.5495 96.0141 12.4227C95.2356 12.2858 94.5682 11.9155 94.0374 11.3169C93.5268 10.7386 93.1578 10.0741 92.8544 9.36904C92.7836 9.20164 92.6977 9.15092 92.5107 9.24222C92.6168 10.3835 92.7179 11.5198 92.8241 12.6611C92.8595 12.6763 92.8898 12.6916 92.9252 12.7068C93.1021 12.4836 93.2892 12.2705 93.4358 12.0981ZM65.3019 5.45303C65.5092 5.53926 65.5901 5.48853 65.6659 5.30085C65.8277 4.88997 65.9945 4.47402 66.222 4.09358C67.0612 2.7037 68.1178 2.45514 69.4221 2.58703C69.4272 2.63268 69.4323 2.68341 69.4323 2.72906C69.4323 5.59506 69.4323 8.46105 69.4323 11.3321C69.4323 11.7278 69.2401 12.0118 68.861 12.1234C68.4768 12.235 68.0824 12.2959 67.6679 12.3872C67.6123 12.58 67.7842 12.5292 67.8903 12.5292C69.4474 12.5292 71.0045 12.5292 72.5667 12.5292C72.8093 12.5292 73.052 12.5292 73.2947 12.5292C73.3098 12.5039 73.325 12.4836 73.3402 12.4582C73.2845 12.4126 73.2391 12.3416 73.1784 12.3314C73.0065 12.301 72.8245 12.3111 72.6526 12.2756C72.0156 12.1488 71.5252 12.0423 71.5353 11.0683C71.5707 8.32916 71.5454 5.58998 71.5454 2.84573C71.5454 2.74935 71.5556 2.65297 71.5606 2.55152C71.8134 2.55152 72.0358 2.54138 72.2532 2.55152C72.7082 2.57181 73.143 2.65805 73.5525 2.89646C74.2097 3.2769 74.6091 3.86532 74.9428 4.5146C75.1096 4.83925 75.236 5.17911 75.3826 5.5139C75.4837 5.48853 75.5595 5.47332 75.6404 5.45303C75.6455 5.4023 75.6505 5.37186 75.6505 5.33636C75.5646 4.37257 75.4736 3.40879 75.3927 2.445C75.3775 2.24717 75.2663 2.24717 75.1197 2.24717C72.046 2.24717 68.9722 2.24717 65.8984 2.24717C65.8074 2.24717 65.7165 2.25732 65.6103 2.26239C65.4991 3.33777 65.3979 4.39286 65.3019 5.45303ZM16.6578 2.56674C17.2847 2.54138 17.8711 2.53123 18.4272 2.77472C19.1046 3.06892 19.5546 3.60662 19.9034 4.23561C20.1309 4.64142 20.3129 5.07766 20.5202 5.5139C20.591 5.50375 20.6668 5.48853 20.7679 5.46824C20.6719 4.39793 20.5809 3.34791 20.4848 2.25732C20.3281 2.25732 20.1865 2.25732 20.05 2.25732C17.1279 2.25732 14.2059 2.25732 11.2838 2.25732C11.1473 2.25732 11.0108 2.23703 10.8793 2.26239C10.8136 2.27253 10.7226 2.35877 10.7125 2.41456C10.6367 3.13994 10.5709 3.87039 10.5052 4.59576C10.4799 4.8849 10.4648 5.17404 10.4395 5.46317C10.7125 5.49361 10.7125 5.49361 10.7934 5.27041C11.0816 4.45373 11.4658 3.70299 12.1533 3.13994C12.856 2.56674 13.675 2.51094 14.5345 2.56167C14.5395 2.65805 14.5446 2.73414 14.5446 2.80515C14.5446 5.63564 14.5446 8.4712 14.5446 11.3017C14.5446 11.7278 14.403 11.9763 13.9986 12.1031C13.6599 12.2097 13.2959 12.2503 12.942 12.3111C12.7903 12.3365 12.7853 12.3263 12.8105 12.4988C14.676 12.4988 16.5415 12.4988 18.407 12.4988C18.4222 12.4734 18.4323 12.4532 18.4474 12.4278C18.3918 12.3872 18.3413 12.3263 18.2806 12.3162C18.1239 12.2858 17.9621 12.2908 17.8054 12.2655C17.0066 12.1437 16.6325 11.9205 16.6426 11.0176C16.6729 8.29366 16.6527 5.56969 16.6527 2.8508C16.6578 2.76964 16.6578 2.67834 16.6578 2.56674ZM105.372 2.57689C105.372 2.98776 105.372 3.38342 105.372 3.77908C105.372 6.29 105.372 8.80091 105.372 11.3169C105.372 11.7684 105.23 12.0017 104.785 12.1336C104.452 12.235 104.098 12.2655 103.754 12.3365C103.704 12.3466 103.663 12.4024 103.623 12.4379C103.663 12.4684 103.698 12.514 103.749 12.5292C103.795 12.5445 103.85 12.5343 103.901 12.5343C105.498 12.5343 107.101 12.5343 108.698 12.5343C108.81 12.5343 108.921 12.5445 109.027 12.5292C109.078 12.5242 109.128 12.4734 109.179 12.4481C109.128 12.4126 109.078 12.3517 109.022 12.3416C108.855 12.3162 108.688 12.3111 108.521 12.2908C107.758 12.1995 107.49 11.8952 107.49 11.1394C107.49 8.6183 107.49 6.09724 107.49 3.57618C107.49 3.29719 107.485 3.0182 107.5 2.74428C107.505 2.68341 107.571 2.57181 107.617 2.57181C108.213 2.5566 108.81 2.54645 109.366 2.82544C110.094 3.19067 110.549 3.80445 110.898 4.50953C111.059 4.83925 111.206 5.17911 111.363 5.52911C111.444 5.5139 111.524 5.49361 111.615 5.47332C111.519 4.39286 111.428 3.34284 111.337 2.28268C108.077 2.28268 104.836 2.28268 101.575 2.28268C101.474 3.35299 101.378 4.41315 101.277 5.47839C101.388 5.49361 101.464 5.50882 101.54 5.51897C102.435 2.91168 103.719 2.41964 105.372 2.57689Z" fill="#F7EDE2"/>
<path d="M143 0.00452757C142.626 0.638597 142.282 1.22194 141.938 1.80528C140.836 3.67706 139.734 5.54883 138.637 7.42568C138.592 7.50176 138.607 7.65394 138.652 7.7351C139.638 9.42426 140.629 11.1084 141.62 12.7924C142.034 13.4925 142.444 14.1975 142.853 14.8976C142.889 14.9635 142.919 15.0294 142.975 15.1309C142.692 15.1309 142.439 15.141 142.181 15.1207C142.12 15.1157 142.055 15.0244 142.014 14.9584C141.357 13.8374 140.7 12.7113 140.048 11.5902C139.304 10.317 138.561 9.03875 137.808 7.77061C137.727 7.63365 137.712 7.5322 137.793 7.39017C139.208 4.9807 140.619 2.56617 142.034 0.161777C142.075 0.0958336 142.161 0.0197452 142.232 0.0146727C142.469 -0.0106901 142.702 0.00452757 143 0.00452757Z" fill="#F7EDE2"/>
<path d="M0 15.1312C0.358941 14.5175 0.687549 13.9544 1.01616 13.3914C1.9312 11.829 2.85131 10.2717 3.77141 8.70939C3.95341 8.39997 4.1253 8.08039 4.32752 7.78111C4.43368 7.62387 4.41346 7.50212 4.32246 7.34995C3.55908 6.06659 2.80581 4.77816 2.04748 3.4948C1.39532 2.38899 0.74316 1.2781 0.0909992 0.172281C0.0707771 0.1317 0.0556106 0.0860472 0.0252775 0.0150314C0.298275 0.0150314 0.556106 0.00488633 0.808882 0.020104C0.869548 0.0251766 0.940325 0.11141 0.975713 0.177353C2.04243 2.00347 3.10914 3.82452 4.17585 5.65064C4.51457 6.22891 4.85329 6.80718 5.19706 7.38546C5.27795 7.51734 5.26784 7.61879 5.19201 7.75068C3.79163 10.15 2.39126 12.5442 0.995935 14.9436C0.920103 15.0755 0.839215 15.1414 0.682494 15.1312C0.470162 15.1211 0.262886 15.1312 0 15.1312Z" fill="#F7EDE2"/>
<path d="M125.376 7.38376C125.376 5.73011 125.376 4.15762 125.376 2.55469C126.342 2.57498 127.317 2.45324 128.192 3.00107C128.672 3.30543 128.91 3.75181 129.011 4.29965C129.097 4.78154 129.082 5.25836 128.95 5.72504C128.713 6.56201 128.146 7.08448 127.297 7.22651C126.675 7.32796 126.033 7.33304 125.376 7.38376Z" fill="#F7EDE2"/>
<path d="M114.963 3.84961C115.509 5.36123 116.06 6.87285 116.621 8.41491C115.458 8.41491 114.336 8.41491 113.188 8.41491C113.76 6.88807 114.326 5.37645 114.887 3.85975C114.912 3.85975 114.938 3.85468 114.963 3.84961Z" fill="#F7EDE2"/>
<path d="M35.707 7.38457C35.707 5.73599 35.707 4.15843 35.707 2.56564C36.1772 2.56564 36.6372 2.53521 37.0922 2.57579C37.4613 2.6113 37.8405 2.68739 38.1893 2.82434C38.9021 3.09826 39.2611 3.66132 39.3672 4.41205C39.4279 4.86351 39.4026 5.30482 39.2813 5.73599C39.0538 6.56282 38.4825 7.065 37.6686 7.21718C37.0366 7.33892 36.3845 7.33385 35.707 7.38457Z" fill="#F7EDE2"/>
<path d="M44.9334 6.97333C44.9688 6.01462 45.075 5.07112 45.4137 4.15806C45.9344 2.74789 47.168 2.07831 48.6391 2.39281C49.6704 2.61601 50.2114 3.33124 50.5551 4.23922C50.8484 5.00518 50.9697 5.81172 50.9748 6.63347C50.9798 7.37406 50.9748 8.11466 50.9242 8.85525C50.8736 9.60092 50.7068 10.3263 50.3681 11.006C49.9738 11.8024 49.3621 12.33 48.4672 12.4568C47.441 12.6039 46.531 12.3807 45.8636 11.5133C45.4541 10.9807 45.2317 10.3618 45.1306 9.71251C44.9941 8.8096 44.9435 7.89146 44.8525 6.98348C44.8879 6.97333 44.9081 6.97333 44.9334 6.97333Z" fill="#F7EDE2"/>
<path d="M23.331 7.50139C23.331 6.30427 23.4271 5.23903 23.786 4.2093C24.5797 1.94187 26.971 1.91651 28.1034 2.91073C28.6848 3.42305 28.9679 4.11799 29.1398 4.85352C29.4179 6.03542 29.4431 7.23254 29.3572 8.43981C29.2965 9.30215 29.16 10.134 28.796 10.9203C28.4978 11.5696 28.0579 12.0921 27.3603 12.3152C25.788 12.8225 24.3624 12.229 23.7709 10.5855C23.5332 9.90578 23.3058 8.65286 23.331 7.50139Z" fill="#F7EDE2"/>
<path d="M84.3056 7.41051C84.2905 8.49096 84.2096 9.56127 83.8304 10.5809C83.5271 11.4026 83.0519 12.0925 82.1672 12.3461C80.6404 12.7874 79.2855 12.27 78.6738 10.6265C78.3401 9.73374 78.2441 8.80039 78.2188 7.85689C78.1935 6.84745 78.2289 5.83801 78.4766 4.84887C78.6687 4.08291 78.967 3.37275 79.599 2.84521C80.5949 2.01331 82.6474 2.02345 83.522 3.55536C83.9619 4.33147 84.1388 5.17858 84.2298 6.05106C84.2753 6.50252 84.2804 6.95905 84.3056 7.41051Z" fill="#F7EDE2"/>
</svg>
