<svg width="628" height="356" viewBox="0 0 628 356" fill="none" xmlns="http://www.w3.org/2000/svg">
<g clip-path="url(#clip0)">
<path d="M300.833 154.327C300.833 204.415 300.833 254.504 300.892 304.593C300.892 307.462 300.006 308.537 297.231 309.016C258.852 315.053 220.532 321.209 182.153 327.306C141.176 333.821 100.199 340.276 59.2219 346.791C40.5637 349.78 21.9646 352.709 3.30651 355.817C0.590448 356.355 0 355.578 0 353.067C0.0590448 252.472 0.0590448 151.876 0 51.2802C0 48.8295 0.708537 47.7536 3.18842 47.395C28.5186 43.3903 53.8488 39.2063 79.179 35.1418C105.218 31.0176 131.256 27.0129 157.295 22.8289C196.501 16.5528 235.766 10.217 274.971 3.94101C282.175 2.80535 289.319 1.55015 296.464 0.294942C300.656 -0.422318 300.833 -0.302775 300.833 4.29964C300.833 54.2688 300.833 104.298 300.833 154.267C300.892 154.327 300.833 154.327 300.833 154.327ZM73.3926 188.516C73.3926 209.556 73.3926 230.535 73.3926 251.575C73.3926 255.879 73.6288 256.177 77.7029 255.52C88.9804 253.787 100.199 251.754 111.536 250.2C123.344 248.586 134.622 245.478 145.25 239.92C159.185 232.627 170.344 222.466 177.193 208.001C184.987 191.564 186.463 174.171 183.452 156.359C181.563 145.062 177.607 134.602 169.045 126.592C156.705 114.997 141.53 111.829 125.47 113.502C109.351 115.176 93.3498 118.045 77.2896 120.376C74.4554 120.795 73.3926 122.229 73.3926 125.218C73.4517 146.317 73.3926 167.417 73.3926 188.516ZM251.413 91.9249C239.958 91.9249 230.156 94.256 221.064 98.4998C201.106 107.824 191.659 126.114 195.32 148.051C196.914 157.494 201.756 164.607 210.14 168.672C215.395 171.242 221.123 172.856 226.791 174.529C232.991 176.442 239.426 177.578 245.508 179.729C252.771 182.3 255.073 190.429 250.763 196.884C247.338 202.084 242.202 204.415 236.297 205.073C225.197 206.388 215.631 202.323 206.952 195.689C203.941 193.417 203.527 193.417 201.638 196.764C198.036 203.16 194.612 209.675 190.833 215.951C189.357 218.462 189.947 219.717 192.073 221.271C212.974 236.931 240.017 237.051 262.631 221.331C274.794 212.903 281.88 201.427 283.061 186.364C284.419 168.373 276.743 156.12 259.915 150.441C253.243 148.17 246.276 146.736 239.486 144.644C235.825 143.508 232.164 142.253 228.857 140.46C224.901 138.308 223.248 133.825 224.961 129.701C226.082 127.011 228.09 124.381 230.334 122.588C234.88 119.001 240.43 118.224 246.039 118.703C253.361 119.3 259.974 121.93 265.997 126.234C267.591 127.37 268.949 127.907 270.012 125.696C273.495 118.882 277.038 112.128 280.285 105.194C280.699 104.357 280.049 102.325 279.282 101.787C270.248 95.8698 260.564 91.387 251.413 91.9249ZM51.8413 192.64C51.8413 171.361 51.8413 150.023 51.8413 128.744C51.8413 124.979 51.3689 124.62 47.7082 125.218C40.4457 126.413 33.1832 127.609 25.8616 128.804C21.7285 129.462 21.6694 129.462 21.6694 133.646C21.6694 151.756 21.6694 169.867 21.6694 187.978C21.6694 212.186 21.6694 236.333 21.6694 260.541C21.6694 264.486 21.7875 264.545 25.7435 263.888C33.2422 262.633 40.6818 261.318 48.1805 260.302C51.0737 259.943 51.9594 258.867 51.9594 255.938C51.8413 234.839 51.9003 213.74 51.8413 192.64Z" fill="#003260"/>
<path d="M339.625 160.726C339.625 151.7 339.684 142.615 339.566 133.59C339.507 130.78 340.393 129.645 343.286 129.764C350.666 130.063 358.047 129.705 365.369 130.302C384.263 131.797 394.478 144.109 393.533 163.236C392.647 180.749 381.015 189.715 364.719 191.15C357.279 191.807 349.781 191.269 342.341 191.389C339.979 191.449 339.625 190.134 339.625 188.161C339.684 179.076 339.625 169.931 339.625 160.726ZM359.464 141.659C359.641 141.659 359.051 141.659 358.46 141.659C353.796 141.659 353.796 141.659 353.796 146.441C353.796 154.928 353.737 163.356 353.796 171.844C353.914 180.51 352.143 179.674 361.767 179.494C372.277 179.315 378.417 173.398 379.421 162.878C380.248 153.733 376.646 142.974 364.66 141.958C363.184 141.838 361.708 141.778 359.464 141.659Z" fill="#003260"/>
<path d="M540.555 185.232C529.159 192.584 518.649 192.345 510.383 181.168C504.537 173.338 505.364 161.443 511.209 154.032C514.811 149.429 519.594 147.457 525.203 146.799C530.989 146.082 535.713 148.293 540.732 152.059C540.614 146.201 544.333 147.337 547.345 147.397C556.142 147.457 554.962 146.201 555.021 155.107C555.08 164.372 555.021 173.637 555.021 182.901C555.021 198.502 546.931 207.408 531.521 208.603C524.022 209.201 516.878 207.647 510.206 204.001C508.198 202.925 507.253 201.67 509.025 199.578C509.143 199.458 509.202 199.219 509.32 199.04C510.56 197.246 511.446 194.557 513.099 193.899C514.575 193.361 516.937 194.975 518.826 195.752C523.786 197.784 528.864 198.263 534.119 196.888C538.37 195.752 541.795 190.791 540.555 185.232ZM521.07 168.257C521.011 175.071 525.026 179.494 531.226 179.435C537.425 179.435 541.499 175.131 541.499 168.556C541.499 161.862 537.366 157.439 531.107 157.439C525.38 157.439 521.129 161.981 521.07 168.257Z" fill="#003260"/>
<path d="M483.281 225.937C488.064 225.937 491.961 225.817 495.858 226.056C496.566 226.116 497.629 227.491 497.865 228.447C499.755 235.022 501.467 241.717 503.297 248.291C503.593 249.367 504.183 250.324 504.655 251.34C505.01 251.34 505.364 251.4 505.777 251.4C506.722 248.59 507.785 245.781 508.611 242.912C510.029 238.25 511.387 233.588 512.627 228.866C513.217 226.714 514.398 225.817 516.642 225.877C526.974 226.236 524.435 224.263 527.506 233.887C528.982 238.549 530.222 243.271 531.58 247.933C531.993 249.427 532.584 250.862 533.115 252.296C533.41 252.296 533.706 252.356 534.001 252.356C534.532 250.623 535.123 248.949 535.595 247.216C537.248 240.88 538.842 234.484 540.614 228.208C540.85 227.371 541.854 226.116 542.562 226.056C546.636 225.877 550.769 225.937 555.375 225.937C554.725 228.089 554.253 229.762 553.722 231.436C549.884 243.151 545.987 254.807 542.208 266.582C541.44 268.972 540.259 270.048 537.78 269.809C534.591 269.51 530.635 270.526 528.391 268.913C526.325 267.418 526.03 263.294 525.026 260.246C523.609 256.002 522.31 251.698 520.952 247.455C520.657 246.558 520.302 245.662 519.948 244.765C519.653 244.705 519.358 244.705 519.003 244.645C518.236 246.558 517.409 248.471 516.76 250.443C514.87 256.002 513.04 261.561 511.328 267.179C510.796 268.972 509.91 269.809 507.962 269.69C505.6 269.57 503.238 269.51 500.877 269.69C498.101 269.989 496.803 268.733 495.976 266.163C492.669 255.404 489.245 244.705 485.82 234.006C485.171 231.555 484.285 228.985 483.281 225.937Z" fill="#003260"/>
<path d="M374.285 224.084C370.506 222.351 367.258 220.378 363.775 219.362C361.472 218.704 358.756 219.123 356.276 219.601C354.151 219.96 352.497 221.394 352.261 223.785C352.025 226.176 353.206 227.85 355.154 228.866C357.988 230.24 360.882 231.436 363.775 232.691C366.727 234.006 369.915 234.962 372.632 236.636C382.492 242.553 383.673 257.496 374.816 264.968C364.779 273.515 347.774 272.559 337.087 262.876C336.555 262.398 336.378 260.784 336.791 260.126C338.09 257.795 339.685 255.643 341.161 253.372C342.164 251.818 343.109 252.117 344.585 253.013C347.951 255.046 351.316 257.138 354.977 258.393C357.339 259.17 360.232 258.752 362.771 258.273C365.31 257.795 366.668 255.643 366.845 253.013C367.022 250.563 365.9 248.71 363.716 247.754C358.933 245.602 354.151 243.629 349.368 241.597C343.404 239.087 339.448 234.903 338.445 228.268C337.146 219.601 342.637 211.293 351.789 208.782C360.764 206.332 369.266 207.467 377.178 212.787C379.304 214.222 380.012 215.537 378.3 217.808C376.647 219.9 375.407 222.291 374.285 224.084Z" fill="#003260"/>
<path d="M401.563 230.898C406.405 225.937 411.365 224.323 417.269 225.279C424.355 226.415 428.96 230.838 429.314 238.19C429.728 247.933 429.551 257.676 429.669 267.478C429.669 269.152 428.96 269.809 427.366 269.809C424.532 269.75 421.639 269.69 418.804 269.869C416.443 270.048 415.675 269.032 415.675 266.821C415.734 260.844 415.734 254.866 415.675 248.889C415.675 246.678 415.616 244.466 415.262 242.374C414.671 238.549 412.841 236.875 409.534 236.636C405.815 236.397 403.099 238.13 402.213 241.717C401.563 244.287 401.15 246.977 401.032 249.666C400.855 255.225 400.855 260.844 401.032 266.402C401.15 269.271 400.087 270.108 397.43 269.929C395.068 269.75 392.707 269.75 390.345 269.929C387.688 270.168 386.979 269.032 387.038 266.462C387.097 249.128 387.038 231.795 387.038 214.461C387.038 208.065 385.858 208.244 393.238 208.244C400.973 208.244 400.973 208.244 400.973 216.134C400.973 220.019 400.914 223.905 400.973 227.79C401.032 228.567 401.268 229.344 401.563 230.898Z" fill="#003260"/>
<path d="M545.042 90.9127C545.042 76.7468 556.851 66.765 571.731 68.319C584.425 69.634 592.632 77.5836 593.282 89.8368C593.931 101.672 587.495 110.637 576.395 112.968C572.616 113.745 568.601 114.044 564.822 113.626C552.777 112.371 545.042 103.226 545.042 90.9127ZM579.111 90.9127C578.993 87.3264 578.403 83.9792 575.45 81.5286C572.262 78.8986 567.656 78.4802 564.409 80.4527C560.63 82.724 558.386 87.9839 559.272 92.5863C560.394 98.5635 562.874 101.612 567.302 102.449C574.21 103.704 579.111 98.9221 579.111 90.9127Z" fill="#003260"/>
<path d="M483.34 247.993C483.281 261.68 473.834 270.766 459.545 270.766C444.666 270.766 435.159 261.68 435.219 247.574C435.278 234.484 445.315 224.921 459.132 224.981C473.716 224.981 483.399 234.185 483.34 247.993ZM459.132 259.409C465.213 259.349 469.464 254.568 469.464 247.694C469.464 240.94 464.977 235.799 459.132 235.919C452.932 236.038 449.212 240.94 449.212 248.949C449.271 254.687 453.759 259.469 459.132 259.409Z" fill="#003260"/>
<path d="M377.651 74.1169C378.654 73.1605 379.422 72.4432 380.19 71.7858C385.327 67.3029 391.172 67.3627 397.135 69.5144C401.977 71.2478 404.516 75.0732 405.047 80.094C405.52 84.6367 405.579 89.2391 405.697 93.7817C405.815 99.1612 405.697 104.541 405.815 109.92C405.874 112.132 404.988 113.028 402.863 112.968C400.206 112.909 397.549 112.849 394.892 112.968C392.471 113.088 391.88 111.893 391.88 109.681C391.94 103.405 391.94 97.1289 391.88 90.8529C391.88 88.8805 391.644 86.908 391.113 84.9953C390.227 81.5285 388.22 79.8549 385.208 79.6158C382.315 79.4365 379.363 81.0504 378.182 84.039C377.533 85.7126 377.237 87.685 377.178 89.5379C377.06 96.1128 376.942 102.688 377.119 109.263C377.178 112.251 376.056 113.148 373.34 112.968C370.801 112.789 368.203 112.909 365.665 112.968C363.834 113.028 362.948 112.191 362.948 110.279C362.948 97.4278 362.948 84.5769 362.948 71.726C362.948 69.6938 363.952 68.9167 365.901 68.9167C368.44 68.9765 371.038 68.9765 373.577 68.9167C375.761 68.857 377.296 69.2754 377.001 72.0248C376.942 72.6226 377.296 73.1605 377.651 74.1169Z" fill="#003260"/>
<path d="M577.575 152.776C578.992 151.641 579.937 150.864 580.882 150.027C586.196 145.365 596.883 145.544 601.725 150.744C603.378 152.537 604.795 155.107 605.09 157.439C605.917 164.013 606.094 170.708 606.389 177.342C606.566 180.989 606.33 184.694 606.448 188.4C606.507 190.552 605.799 191.508 603.555 191.449C600.721 191.329 597.828 191.329 594.994 191.449C592.986 191.508 592.218 190.851 592.218 188.699C592.218 180.929 591.982 173.218 591.864 165.448C591.805 161.204 590.093 158.933 586.609 158.395C582.299 157.737 579.17 159.471 578.343 163.595C577.575 167.361 577.398 171.246 577.28 175.131C577.162 179.315 577.28 183.499 577.398 187.683C577.457 190.373 576.69 191.807 573.678 191.568C571.139 191.329 568.601 191.449 566.003 191.449C564.349 191.449 563.464 190.851 563.464 188.998C563.523 175.968 563.464 162.938 563.464 149.907C563.464 148.054 564.231 147.218 566.18 147.277C568.66 147.397 571.08 147.397 573.56 147.218C576.158 147.038 577.575 147.756 577.044 150.684C577.103 151.103 577.339 151.641 577.575 152.776Z" fill="#003260"/>
<path d="M427.129 172.979C423.114 172.979 419.04 172.979 415.025 172.979C412.25 172.979 411.542 174.115 412.663 176.685C413.962 179.674 416.383 181.168 419.394 181.885C424.177 183.081 428.487 181.347 432.857 179.733C434.038 179.315 435.927 178.837 436.577 179.435C438.289 180.989 439.588 183.081 440.887 185.053C441.005 185.292 440.355 186.248 439.824 186.667C432.443 192.644 415.025 195.932 404.81 186.966C398.197 181.168 395.777 170.529 399.024 161.085C401.799 152.896 409.888 147.038 418.922 146.68C431.203 146.201 439.706 151.94 442.186 162.459C442.186 162.579 442.245 162.639 442.245 162.758C444.252 171.903 443.485 172.979 434.451 172.979C432.03 172.979 429.609 172.979 427.129 172.979ZM420.93 165.03C422.996 165.03 425.063 165.03 427.129 165.03C429.491 165.03 430.023 163.834 429.314 161.742C428.074 157.976 424.531 155.526 420.457 155.645C416.619 155.765 413.313 158.395 412.191 162.101C411.601 164.013 412.191 165.03 414.199 165.03C416.442 165.03 418.686 165.03 420.93 165.03Z" fill="#003260"/>
<path d="M471 94.6783C466.867 94.6783 462.734 94.6185 458.601 94.6783C455.885 94.6783 455.412 95.4553 456.475 97.9658C458.187 102.09 462.97 104.72 468.284 103.943C471.177 103.525 474.07 102.688 476.728 101.492C479.325 100.237 480.979 100.655 482.455 102.987C482.986 103.823 483.931 104.481 484.167 105.377C484.403 106.274 484.344 107.828 483.813 108.306C476.196 114.702 457.656 117.152 448.15 108.067C439.411 99.7589 438.348 77.7032 453.995 70.7697C459.959 68.1397 466.099 67.4822 472.417 69.4547C482.278 72.503 488.418 82.2458 486.942 92.5863C486.647 94.4392 485.584 94.7979 484.049 94.7979C479.68 94.6783 475.31 94.6783 471 94.6783ZM464.505 86.7287V86.6689C466.749 86.6689 468.993 86.7885 471.236 86.6091C473.362 86.4896 474.13 85.2942 473.303 83.1424C472.004 79.6756 468.343 77.225 464.564 77.225C460.962 77.2848 457.42 79.7952 456.239 83.2619C455.471 85.5333 456.18 86.6091 458.601 86.7287C460.549 86.7885 462.557 86.7287 464.505 86.7287Z" fill="#003260"/>
<path d="M464.21 146.68C469.229 146.56 473.953 147.696 478.263 150.386C479.798 151.342 480.448 152.358 479.208 153.972C479.149 154.032 479.09 154.151 479.09 154.211C475.488 160.606 476.728 159.949 470.41 157.379C467.989 156.422 465.155 156.183 462.498 156.243C461.553 156.243 459.959 157.857 459.782 158.873C459.664 159.829 460.845 161.443 461.908 161.921C465.037 163.356 468.284 164.432 471.532 165.627C478.322 168.197 481.747 172.68 481.51 178.777C481.274 184.635 476.61 189.835 469.997 191.508C461.848 193.541 454.232 192.285 447.146 187.683C445.257 186.488 444.726 185.173 446.202 183.379C446.261 183.32 446.32 183.2 446.379 183.14C449.567 178 449.449 178.239 454.999 180.57C458.07 181.825 461.612 182.304 464.919 182.483C466.1 182.543 467.989 180.929 468.461 179.674C468.757 178.837 467.281 176.745 466.159 176.147C463.679 174.832 460.904 173.995 458.188 173.159C449.98 170.469 446.615 165.986 447.501 158.754C448.327 151.88 454.055 147.158 461.908 146.799C462.675 146.68 463.443 146.68 464.21 146.68Z" fill="#003260"/>
<path d="M415.498 97.4278C415.498 92.4668 415.439 87.5057 415.498 82.5447C415.557 80.5124 414.73 79.5561 412.723 79.7952C409.889 80.1538 409.062 78.6595 409.357 76.0893C409.475 75.133 409.534 74.1169 409.416 73.1007C409.121 70.2317 410.007 68.7374 413.195 69.1558C413.845 69.2156 415.262 67.7811 415.38 66.9443C415.675 64.6729 415.498 62.4016 415.498 60.0705C415.439 58.2774 416.029 57.2613 418.037 57.321C420.989 57.4406 423.941 57.3808 426.894 57.321C428.96 57.2613 429.728 58.2774 429.61 60.2498C429.551 62.043 429.669 63.8361 429.551 65.6293C429.373 68.1995 430.495 69.3949 432.975 69.2156C440.415 68.7374 439.057 69.5144 439.352 75.91C439.47 78.7193 438.643 79.8549 435.691 79.7354C429.432 79.4963 429.551 79.1975 429.61 85.8321C429.669 89.5977 429.61 93.4231 429.669 97.1887C429.787 101.253 431.145 102.748 435.16 102.269C438.289 101.911 438.821 103.285 438.88 105.975C439.057 113.148 439.175 113.208 431.912 113.805C429.787 113.985 427.602 113.925 425.476 113.566C419.808 112.61 416.62 109.203 416.029 103.345C415.793 101.373 415.97 99.4003 415.97 97.368C415.793 97.4278 415.616 97.4278 415.498 97.4278Z" fill="#003260"/>
<path d="M353.855 82.3056C353.855 91.4506 353.796 100.596 353.914 109.741C353.914 112.012 353.265 113.088 350.903 113.028C348.128 112.909 345.412 112.909 342.637 112.968C340.57 113.028 339.625 112.251 339.625 109.98C339.684 91.4506 339.684 72.9812 339.625 54.452C339.625 52.4795 340.334 51.5232 342.341 51.5232C344.998 51.5829 347.655 51.5232 350.312 51.4036C352.969 51.2841 353.914 52.3002 353.855 55.0497C353.737 64.1948 353.796 73.2203 353.855 82.3056Z" fill="#003260"/>
<path d="M508.14 72.8617C508.435 72.6226 509.262 71.9651 510.029 71.3076C512.627 69.0363 515.579 67.9604 518.945 68.2592C521.07 68.4385 522.251 69.3351 522.015 71.6662C521.838 73.6387 521.779 75.6112 521.602 77.5836C521.307 81.7079 521.307 81.7079 517.292 81.1699C516.17 81.0504 514.93 80.9308 513.808 81.2297C510.442 82.186 507.844 84.2183 507.608 87.9241C507.136 94.8576 506.9 101.791 506.723 108.725C506.605 112.789 506.545 112.968 502.589 112.968C500.228 112.968 497.866 112.909 495.504 112.968C493.733 112.968 492.729 112.311 492.729 110.338C492.788 97.4278 492.729 84.4574 492.729 71.5467C492.729 69.8133 493.497 68.9765 495.209 68.9765C498.161 68.9765 501.172 68.6179 504.007 69.096C505.424 69.3949 506.427 71.3076 508.14 72.8617Z" fill="#003260"/>
<path d="M613.18 74.1168C614.361 73.041 615.01 72.2042 615.896 71.6662C617.608 70.5306 619.32 69.2156 621.21 68.6776C626.76 67.0638 628.236 68.3788 627.941 74.1766C627.941 74.4755 627.941 74.7743 627.882 75.0732C627.587 81.1699 627.587 81.1699 621.623 81.2297C617.372 81.2297 614.006 83.9194 613.652 88.4023C613.121 95.3955 612.944 102.508 612.885 109.502C612.885 112.072 612.117 113.208 609.519 113.028C606.98 112.909 604.382 112.968 601.843 113.028C600.013 113.088 599.127 112.251 599.127 110.338C599.186 97.4278 599.186 84.4573 599.186 71.5467C599.186 69.8133 599.954 68.9765 601.666 68.9765C603.733 68.9765 605.799 68.9765 607.866 68.9765C612.648 69.0363 612.648 69.0363 613.18 74.1168Z" fill="#003260"/>
<path d="M500.995 169.453C500.995 175.729 500.936 182.005 501.054 188.281C501.113 190.612 500.227 191.568 497.924 191.449C495.149 191.329 492.433 191.389 489.658 191.389C487.946 191.389 487.178 190.552 487.178 188.819C487.237 175.968 487.237 163.117 487.237 150.326C487.237 148.054 488.123 147.098 490.426 147.218C492.847 147.337 495.326 147.397 497.806 147.218C500.168 147.038 500.936 148.114 500.936 150.326C500.877 156.721 500.936 163.057 500.936 169.453H500.995Z" fill="#003260"/>
<path d="M539.374 90.9725C539.374 97.2485 539.315 103.525 539.433 109.801C539.492 112.072 538.665 113.148 536.362 113.028C533.705 112.909 531.048 112.968 528.391 113.028C526.561 113.028 525.734 112.251 525.734 110.338C525.793 97.4876 525.793 84.6367 525.734 71.8455C525.734 69.7535 526.679 69.0363 528.568 69.0363C531.048 69.0961 533.469 69.1558 535.949 69.0363C538.429 68.9167 539.492 69.8731 539.433 72.503C539.255 78.6595 539.374 84.816 539.374 90.9725Z" fill="#003260"/>
<path d="M501.998 134.785C502.057 138.969 498.633 142.137 494.086 142.257C489.658 142.376 486.293 139.148 486.293 134.785C486.234 130.482 489.422 127.612 494.264 127.553C498.574 127.553 501.939 130.661 501.998 134.785Z" fill="#003260"/>
<path d="M532.111 63.6568C527.683 63.5971 524.672 60.6682 524.672 56.544C524.672 52.36 528.214 49.0128 532.643 49.1323C537.13 49.1921 540.436 52.4795 540.318 56.7831C540.141 61.0866 537.012 63.7166 532.111 63.6568Z" fill="#003260"/>
<path d="M103.506 183.499C103.506 171.425 103.565 159.411 103.446 147.337C103.446 144.528 104.214 143.153 107.166 142.854C113.425 142.257 119.625 140.882 125.883 140.762C139.11 140.523 148.439 147.277 152.04 160.128C156.646 176.446 155.17 192.166 144.719 206.093C138.283 214.7 129.426 219.302 119.034 221.155C114.783 221.932 110.473 222.47 106.222 223.247C104.096 223.665 103.387 222.948 103.387 220.796C103.446 208.364 103.387 195.872 103.387 183.439C103.446 183.499 103.446 183.499 103.506 183.499Z" fill="#003260"/>
</g>
<defs>
<clipPath id="clip0">
<rect width="628" height="356" fill="white"/>
</clipPath>
</defs>
</svg>
