<svg width="629" height="186" viewBox="0 0 629 186" fill="none" xmlns="http://www.w3.org/2000/svg">
<g clip-path="url(#clip0)">
<path d="M94.8058 186C63.2646 186 31.5412 186 0 186C0 124 0 62 0 0C10.3922 0 20.602 0 30.9942 0C31.5412 10.2118 32.0881 20.2412 32.6351 31.3647C53.4194 31.3647 73.4745 31.3647 94.8058 31.3647C94.8058 83.5176 94.8058 134.759 94.8058 186ZM32.4528 153.724C42.6626 153.724 52.5078 153.724 62.1707 153.724C62.1707 122.906 62.1707 92.8176 62.1707 62.9118C51.7785 62.9118 42.298 62.9118 32.4528 62.9118C32.4528 93.5471 32.4528 123.453 32.4528 153.724Z" fill="#003260"/>
<path d="M299.003 186C299.003 155.365 299.003 124.729 299.003 93.1823C320.152 93.1823 340.389 93.1823 360.991 93.1823C360.991 82.6059 360.991 73.1235 360.991 62.547C340.572 62.547 320.517 62.547 299.732 62.547C299.732 51.7882 299.732 41.9412 299.732 31.7294C330.726 31.7294 361.174 31.7294 392.532 31.7294C392.715 34.1 393.262 36.4706 393.262 38.6588C393.262 85.1588 393.262 131.659 393.262 177.976C393.262 180.712 392.532 183.265 391.986 186C360.991 186 329.997 186 299.003 186ZM330.726 153.541C340.936 153.541 350.781 153.541 360.991 153.541C360.991 143.512 360.991 134.394 360.991 124.912C350.599 124.912 340.754 124.912 330.726 124.912C330.726 134.759 330.726 143.694 330.726 153.541Z" fill="#003260"/>
<path d="M111.215 186C111.032 178.159 110.485 170.318 110.485 162.294C110.485 122.541 110.485 82.6059 110.485 42.8529C110.485 39.2059 110.485 35.7412 110.485 31.5471C142.026 31.5471 172.656 31.5471 203.65 31.5471C203.65 62 203.65 92.2706 203.65 123.635C183.777 123.635 163.54 123.635 142.573 123.635C142.573 134.212 142.573 143.694 142.573 154.271C162.628 154.271 182.866 154.271 204.015 154.271C204.015 165.576 204.015 175.788 204.015 186C173.203 186 142.209 186 111.215 186ZM172.474 92.8177C172.474 82.2412 172.474 72.5765 172.474 63.0941C162.081 63.0941 152.236 63.0941 142.573 63.0941C142.573 73.4882 142.573 82.9706 142.573 92.8177C152.783 92.8177 162.264 92.8177 172.474 92.8177Z" fill="#003260"/>
<path d="M410.217 186C410.035 173.235 409.67 160.471 409.67 147.888C409.67 112.694 409.67 77.5 409.67 42.3059C409.67 39.0235 409.67 35.7412 409.67 31.9118C420.245 31.9118 430.09 31.9118 440.847 31.9118C440.847 51.6059 440.847 70.7529 440.847 90.0824C441.576 90.4471 442.305 90.9941 442.852 91.3588C452.515 81.6941 462.908 72.5765 471.112 61.8177C474.029 57.9882 472.023 50.1471 472.023 44.1294C472.023 40.3 472.023 36.2882 472.023 31.9118C482.598 31.9118 492.443 31.9118 503.382 31.9118C503.382 41.5765 503.747 50.8765 503.2 60.1765C503.018 62.7294 500.648 65.4647 498.642 67.4706C490.802 75.6765 482.598 83.5177 472.935 93C484.057 93 492.99 93 503.382 93C503.382 124.547 503.382 155.365 503.382 186.182C492.99 186.182 482.78 186.182 472.388 186.182C472.388 155.365 472.388 124.547 472.388 93.9118C461.084 93.9118 451.604 93.9118 441.394 93.9118C441.394 125.094 441.394 155.729 441.394 186.182C430.819 186 420.61 186 410.217 186Z" fill="#003260"/>
<path d="M565.188 186C565.188 124 565.188 62 565.188 0C575.581 0 585.791 0 596.183 0C596.73 10.2118 597.094 20.4235 597.641 31C608.58 31 618.79 31 629 31C629 41.3941 629 51.6059 629 62C618.79 62 608.398 62 597.641 62C597.641 93.1824 597.641 123.271 597.641 155C608.58 155 618.79 155 629 155C629 165.394 629 175.606 629 186C607.669 186 586.52 186 565.188 186Z" fill="#003260"/>
<path d="M220.606 186C220.606 124 220.606 62 220.606 0C230.998 0 241.208 0 251.6 0C251.6 10.0294 251.6 19.8765 251.6 31C262.175 31 272.02 31 282.412 31C282.412 41.5765 282.412 51.2412 282.412 61.8176C272.749 61.8176 262.904 61.8176 252.512 61.8176C252.512 93 252.512 123.088 252.512 154.271C262.357 154.271 272.202 154.271 282.594 154.271C282.594 165.576 282.594 175.788 282.594 186C261.992 186 241.208 186 220.606 186Z" fill="#003260"/>
<path d="M519.609 186C519.609 145.153 519.609 104.124 519.609 62.7294C529.636 62.7294 539.299 62.7294 550.603 62.7294C550.603 103.759 550.603 144.788 550.603 186C540.211 186 530.001 186 519.609 186Z" fill="#003260"/>
<path d="M550.603 0C550.603 10.2118 550.603 20.4235 550.603 31C539.664 31 529.818 31 519.609 31C519.609 20.2412 519.609 10.2118 519.609 0C530.001 0 540.211 0 550.603 0Z" fill="#003260"/>
</g>
<defs>
<clipPath id="clip0">
<rect width="629" height="186" fill="white"/>
</clipPath>
</defs>
</svg>
