<svg width="216" height="24" viewBox="0 0 216 24" fill="none" xmlns="http://www.w3.org/2000/svg">
<path d="M2.56623 23.9386C2.8641 23.4237 3.13141 22.955 3.40637 22.4862C5.1783 19.42 6.93496 16.3462 8.75271 13.3031C9.10405 12.7191 9.12696 12.3118 8.76799 11.7201C6.88149 8.53866 5.04082 5.3265 3.18488 2.12971C2.9863 1.79159 2.79536 1.45346 2.57387 1.06155C72.863 1.06155 143.083 1.06155 213.365 1.06155C213.319 1.16145 213.289 1.25366 213.243 1.33051C211.158 4.93459 209.073 8.53866 206.972 12.1427C206.827 12.3886 206.804 12.5654 206.957 12.8267C209.012 16.3462 211.058 19.8734 213.105 23.4007C213.197 23.562 213.281 23.7234 213.396 23.9309C143.099 23.9386 72.8707 23.9386 2.56623 23.9386ZM171.473 19.9964C171.557 19.6275 171.289 19.6736 171.106 19.6429C169.823 19.4124 169.38 18.813 169.609 17.5681C169.617 17.545 169.617 17.5143 169.624 17.4912C169.976 16.4692 170.327 15.4471 170.693 14.4251C170.724 14.3328 170.9 14.2406 171.007 14.2406C172.687 14.2253 174.367 14.2253 176.048 14.2329C176.154 14.2329 176.322 14.3252 176.361 14.4174C176.842 15.693 177.323 16.9687 177.758 18.2674C178.01 19.0281 177.766 19.3893 176.972 19.543C176.597 19.6198 176.216 19.6352 175.841 19.7044C175.765 19.7197 175.704 19.812 175.643 19.8658C175.711 19.9195 175.78 19.981 175.857 20.0118C175.925 20.0348 176.009 20.0194 176.086 20.0194C178.316 20.0194 180.538 20.0194 182.769 20.0194C185.633 20.0194 188.497 20.0194 191.353 20.0118C191.483 20.0118 191.605 19.9272 191.735 19.8888C191.613 19.8196 191.491 19.7274 191.353 19.6967C190.994 19.6198 190.62 19.6045 190.269 19.5123C189.635 19.3509 189.375 18.9667 189.375 18.3135C189.375 16.7535 189.375 15.1935 189.375 13.6335C189.375 13.3185 189.375 13.0034 189.375 12.6807C190.315 12.55 191.101 12.7575 191.674 13.5106C192.171 14.1715 192.667 14.84 193.118 15.5316C194.072 16.9994 195.019 18.4595 196.211 19.7505C196.394 19.9503 196.585 20.0194 196.845 20.0194C198.128 20.0118 199.419 20.0118 200.702 20.0118C201.122 20.0118 201.534 20.0118 201.954 20.0118C201.977 19.9733 202 19.9272 202.023 19.8888C201.931 19.8196 201.84 19.6967 201.74 19.689C200.511 19.5968 199.594 18.9436 198.846 18.0291C198.12 17.1377 197.448 16.2156 196.745 15.3088C196.142 14.5173 195.562 13.695 194.699 13.1725C194.256 12.9035 193.767 12.7268 193.446 12.5731C194.256 12.2503 195.21 11.9199 196.112 11.4972C196.883 11.1361 197.494 10.5443 197.899 9.77588C198.67 8.30812 198.212 6.58677 196.799 5.64157C195.478 4.75784 193.973 4.48888 192.438 4.45814C189.642 4.40435 186.839 4.43509 184.044 4.4274C183.93 4.4274 183.823 4.44277 183.708 4.45046C183.693 4.48888 183.67 4.5273 183.655 4.56572C183.762 4.6272 183.861 4.71942 183.968 4.74247C184.388 4.827 184.831 4.85005 185.243 4.96532C185.854 5.13438 186.091 5.48019 186.122 6.11033C186.137 6.41771 186.122 6.7251 186.122 7.03248C186.122 10.7134 186.122 14.3943 186.122 18.0752C186.122 19.0589 185.877 19.3663 184.915 19.5737C184.594 19.6429 184.258 19.6736 183.93 19.689C182.593 19.7582 181.547 19.105 181.073 17.8831C180.37 16.0542 179.691 14.2099 178.996 12.3733C178.071 9.9142 177.155 7.45513 176.223 4.99606C176.086 4.63489 176.009 4.14307 175.742 3.96633C175.459 3.7819 174.978 3.9279 174.589 3.89716C174.344 3.8818 174.23 3.97401 174.146 4.19686C173.542 5.75684 172.924 7.30912 172.305 8.86141C171.266 11.4895 170.243 14.133 169.166 16.7535C168.608 18.106 167.86 19.3125 166.287 19.6736C166.21 19.689 166.157 19.8427 166.05 19.9964C167.921 19.9964 169.685 19.9964 171.473 19.9964ZM53.8988 12.6883C54.9451 12.5116 55.7242 12.8343 56.3046 13.6259C56.7935 14.2944 57.2823 14.963 57.7405 15.6546C58.6799 17.0993 59.5965 18.5517 60.8108 19.7889C60.9178 19.8965 61.0782 20.0041 61.2156 20.0041C62.8959 20.0194 64.5762 20.0194 66.2488 20.0118C66.3405 20.0118 66.4321 19.9272 66.5238 19.8811C66.4398 19.812 66.3558 19.6967 66.2641 19.689C65.2025 19.6045 64.3394 19.105 63.6597 18.3211C62.9112 17.4528 62.2162 16.5383 61.5288 15.6315C60.5283 14.3098 59.5888 12.9189 57.794 12.5346C57.9849 12.4655 58.1606 12.4194 58.3439 12.381C59.6347 12.0736 60.8338 11.5894 61.7961 10.6212C62.4071 9.99873 62.789 9.26101 62.789 8.3696C62.7966 6.88647 62.0023 5.91053 60.7345 5.28808C59.3444 4.60415 57.8474 4.43509 56.3199 4.41972C53.9522 4.40435 51.5846 4.41203 49.2246 4.41972C48.8961 4.41972 48.5677 4.41972 48.2469 4.41972C48.2317 4.46582 48.2087 4.51193 48.1935 4.55804C48.2851 4.61952 48.3768 4.71942 48.4761 4.74247C48.7968 4.80395 49.1329 4.81163 49.4613 4.87311C50.332 5.0268 50.6604 5.41871 50.6604 6.30244C50.6604 10.2907 50.6604 14.2791 50.6604 18.2597C50.6604 18.9436 50.3626 19.3509 49.7057 19.5046C49.3009 19.6045 48.8809 19.6429 48.4684 19.6967C48.2546 19.7197 48.1629 19.7889 48.2775 20.0194C48.3997 20.0194 48.5143 20.0194 48.6212 20.0194C50.5917 20.0194 52.5622 20.0194 54.5327 20.0194C55.0292 20.0194 55.5256 20.0271 56.022 20.0118C56.1137 20.0118 56.2053 19.9272 56.297 19.8888C56.2053 19.8273 56.129 19.7274 56.0297 19.7121C55.7089 19.6506 55.3728 19.6352 55.0521 19.5737C54.1814 19.397 53.9217 19.0666 53.9141 18.1751C53.9141 16.4845 53.9141 14.8016 53.9141 13.111C53.8988 12.9727 53.8988 12.8343 53.8988 12.6883ZM64.4082 12.2964C64.4845 12.9266 64.5304 13.5644 64.6526 14.1868C65.0727 16.2694 66.1266 17.9523 67.9062 19.128C69.5407 20.2039 71.3431 20.6188 73.2831 20.4037C76.025 20.0963 78.0872 18.7361 79.4314 16.3078C80.3785 14.5941 80.6076 12.7268 80.3326 10.8133C80.0653 8.92289 79.2634 7.28607 77.8122 6.01043C76.0556 4.47351 73.9858 3.88948 71.7021 4.07391C70.0829 4.20455 68.6089 4.78858 67.3563 5.84905C65.3705 7.52429 64.4769 9.7144 64.4082 12.2964ZM130.695 12.9419C130.733 10.529 130.321 8.79994 129.236 7.28607C127.9 5.4264 126.067 4.39666 123.806 4.12002C121.568 3.84337 119.537 4.35824 117.765 5.76452C115.825 7.29376 114.901 9.36091 114.763 11.7969C114.664 13.5721 115.008 15.255 115.939 16.7842C117.108 18.69 118.826 19.835 120.995 20.2884C123.111 20.7264 125.143 20.419 126.968 19.2664C129.45 17.6756 130.604 15.3011 130.695 12.9419ZM47.781 11.1668C47.7734 10.3215 47.2159 8.53098 46.3528 7.31681C43.8935 3.86643 38.845 2.9827 35.3317 5.39566C33.1091 6.9249 32.017 9.08427 31.8337 11.7508C31.5892 15.4241 33.4146 18.4825 36.6683 19.8734C39.6622 21.1491 43.4199 20.3499 45.6196 17.96C47.1777 16.2617 47.8192 14.2329 47.781 11.1668ZM95.6156 20.396C95.6156 20.1808 95.6156 20.0194 95.6156 19.8581C95.6156 15.985 95.6079 12.112 95.6156 8.23896C95.6156 7.7702 95.6385 7.29376 95.6996 6.825C95.8141 5.9259 96.2877 5.28808 97.166 5.01143C97.4791 4.91153 97.8076 4.84237 98.1207 4.75015C98.1818 4.7271 98.22 4.63489 98.2734 4.57341C98.2123 4.5273 98.1589 4.45814 98.0901 4.43509C97.9909 4.41203 97.8916 4.41972 97.7846 4.41972C95.9287 4.41972 94.0728 4.4274 92.2092 4.4274C92.1099 4.4274 92.0106 4.44277 91.9113 4.45046C91.8884 4.48119 91.8655 4.51193 91.8426 4.54267C91.9266 4.61952 92.0106 4.7271 92.1099 4.75784C92.4765 4.86542 92.8507 4.93459 93.2173 5.04985C94.1491 5.34187 94.6685 5.99506 94.8136 6.95563C94.8671 7.32449 94.9053 7.69335 94.9053 8.06222C94.9129 10.529 94.9129 12.9957 94.9129 15.4625C94.9129 15.5393 94.89 15.6239 94.8747 15.7852C94.3019 15.0398 93.7825 14.3482 93.2555 13.6643C90.9642 10.675 88.6653 7.68567 86.3817 4.68868C86.206 4.45814 86.0074 4.41972 85.763 4.41972C85.0145 4.4274 84.2584 4.4274 83.5099 4.4274C82.6316 4.4274 81.7532 4.4274 80.8749 4.44277C80.7756 4.44277 80.6763 4.5273 80.577 4.56572C80.6763 4.6272 80.7756 4.69636 80.8826 4.75015C80.9055 4.75784 80.936 4.75016 80.9589 4.75784C82.6087 4.95764 83.3419 5.79526 83.3419 7.45513C83.3419 10.2831 83.3419 13.1033 83.3342 15.9312C83.3342 16.4538 83.3113 16.9763 83.2502 17.4989C83.1357 18.4364 82.6468 19.1127 81.7303 19.42C81.4325 19.5199 81.1117 19.5737 80.8138 19.6813C80.7069 19.7197 80.6229 19.835 80.5312 19.9195C80.5541 19.958 80.5771 19.9964 80.6 20.0348C81.654 20.0348 82.7079 20.0348 83.7619 20.0348C84.7319 20.0348 85.6943 20.0348 86.6642 20.0271C86.7559 20.0271 86.8399 19.9349 86.9316 19.8888C86.8552 19.8196 86.7864 19.7121 86.7024 19.689C86.4351 19.6122 86.1525 19.5814 85.8852 19.5046C85.0603 19.274 84.4264 18.8206 84.2278 17.9446C84.1209 17.4528 84.0522 16.9379 84.0522 16.4307C84.0369 13.9256 84.0522 11.4204 84.0598 8.91521C84.0598 8.32349 84.0598 7.73178 84.0598 7.0248C84.3653 7.42439 84.6174 7.74715 84.8694 8.07758C86.4122 10.0756 87.955 12.0659 89.4978 14.0639C91.0864 16.1234 92.6751 18.1751 94.2713 20.2269C94.3477 20.3191 94.4928 20.4037 94.6074 20.4114C94.9053 20.4114 95.226 20.396 95.6156 20.396ZM141.212 19.274C142.618 19.9426 144.046 20.3345 145.55 20.4267C147.376 20.542 149.163 20.3883 150.828 19.5661C153.921 18.0445 153.86 14.402 152.218 12.6422C151.431 11.8046 150.446 11.2744 149.385 10.9055C147.933 10.3983 146.459 9.95263 145.016 9.42239C144.481 9.22259 143.924 8.94594 143.504 8.56171C142.358 7.50892 142.793 5.61851 144.29 4.9269C146.192 4.03549 148.758 4.69636 150.034 6.37929C150.66 7.20154 151.103 8.11601 151.447 9.07658C151.546 9.34554 151.668 9.4685 151.943 9.29943C151.951 9.26101 151.966 9.22259 151.958 9.18417C151.829 7.65493 151.699 6.13338 151.561 4.60415C151.554 4.5273 151.485 4.41203 151.439 4.40435C151.355 4.39666 151.24 4.44277 151.187 4.50425C151.019 4.7271 150.874 4.96532 150.721 5.18818C148.262 3.91253 145.726 3.72042 143.114 4.48119C141.9 4.83469 140.891 5.51093 140.426 6.7712C139.753 8.60014 140.471 10.4905 142.213 11.5894C143.267 12.258 144.458 12.5884 145.619 13.0034C146.856 13.4491 148.117 13.8795 149.293 14.4635C151.21 15.4241 150.988 17.9753 149.491 19.0512C148.529 19.7505 147.445 19.9657 146.284 19.9503C144.13 19.9349 142.45 19.0742 141.312 17.2223C140.899 16.5537 140.571 15.8313 140.181 15.1397C140.128 15.0475 139.983 14.9784 139.876 14.963C139.83 14.9553 139.708 15.1397 139.715 15.2243C139.853 16.7996 140.005 18.3749 140.158 19.9503C140.166 20.0348 140.235 20.1193 140.28 20.1962C140.364 20.1501 140.471 20.127 140.533 20.0579C140.769 19.812 140.983 19.543 141.212 19.274ZM104.857 4.9269C104.857 5.06522 104.857 5.18818 104.857 5.31882C104.857 9.38397 104.857 13.4491 104.857 17.5143C104.857 17.7448 104.857 17.9753 104.857 18.2059C104.849 18.813 104.559 19.2433 103.979 19.4047C103.482 19.543 102.963 19.5968 102.451 19.6967C102.352 19.7197 102.26 19.812 102.169 19.8658C102.268 19.9195 102.367 20.0118 102.459 20.0118C105.132 20.0194 107.805 20.0194 110.471 20.0194C110.562 20.0194 110.654 19.9195 110.746 19.8658C110.662 19.812 110.578 19.7351 110.486 19.7197C110.051 19.6429 109.6 19.6122 109.172 19.5123C108.34 19.3125 108.057 18.9205 108.057 18.0752C108.057 14.0639 108.057 10.0525 108.057 6.03348C108.057 5.66462 108.057 5.30345 108.057 4.91922C108.5 4.91922 108.882 4.90385 109.256 4.91922C110.318 4.97301 111.219 5.36492 111.968 6.13338C112.777 6.96332 113.274 7.97768 113.671 9.04584C113.785 9.35323 113.923 9.46081 114.221 9.28407C114.221 9.20722 114.236 9.13037 114.228 9.05353C114.099 7.63188 113.961 6.20254 113.847 4.78089C113.824 4.50425 113.724 4.4274 113.449 4.4274C108.844 4.43509 104.238 4.4274 99.6329 4.4274C99.4573 4.4274 99.2816 4.4274 99.0678 4.4274C98.9914 5.21892 98.915 5.97969 98.8463 6.74046C98.7699 7.50124 98.7012 8.26201 98.6324 9.03047C98.6248 9.13037 98.6553 9.2687 98.7164 9.33017C98.7699 9.38397 98.9303 9.39165 98.999 9.34554C99.083 9.28407 99.1212 9.16111 99.1594 9.05353C99.526 7.97768 100.022 6.98637 100.817 6.15644C101.917 5.01143 103.307 4.79626 104.857 4.9269ZM31.3448 9.28407C31.3372 9.10732 31.3296 8.93057 31.3143 8.75383C31.1921 7.45513 31.0546 6.16412 30.963 4.86542C30.94 4.51193 30.8255 4.41972 30.4894 4.41972C25.8305 4.4274 21.1791 4.4274 16.5202 4.41972C16.2681 4.41972 16.1612 4.47351 16.1383 4.75015C16.0543 5.79526 15.9474 6.83268 15.8557 7.87778C15.8099 8.35423 15.7717 8.83068 15.7335 9.28407C16.039 9.44544 16.1689 9.35323 16.2605 9.09195C16.6118 8.08527 17.0701 7.14006 17.7804 6.3255C18.8955 5.04217 20.339 4.78858 21.9353 4.9269C21.9429 5.04985 21.9505 5.15744 21.9505 5.25734C21.9505 9.5684 21.9505 13.8718 21.9505 18.1828C21.9505 18.8283 21.7214 19.1972 21.1028 19.397C20.5987 19.5584 20.0564 19.6045 19.5371 19.7121C19.4454 19.7274 19.369 19.8043 19.2774 19.8581C19.369 19.9119 19.4607 20.0118 19.5523 20.0118C19.9495 20.0271 20.339 20.0194 20.7362 20.0194C22.9893 20.0194 25.2424 20.0194 27.4955 20.0118C27.61 20.0118 27.717 19.9195 27.8315 19.8734C27.7246 19.812 27.6253 19.7274 27.5107 19.7044C27.0754 19.6275 26.6248 19.5968 26.1971 19.4969C25.4791 19.3278 25.1507 18.8744 25.1507 18.1444C25.1507 13.8641 25.1507 9.58377 25.1507 5.29576C25.1507 5.17281 25.1584 5.04985 25.166 4.91922C25.609 4.91922 25.9985 4.89616 26.3957 4.9269C27.4191 4.98838 28.3127 5.36492 29.0459 6.11033C29.8784 6.96332 30.3825 7.99305 30.8026 9.08427C30.9019 9.33786 31.0241 9.45313 31.3448 9.28407ZM159.161 4.94227C159.168 5.04217 159.176 5.14207 159.176 5.24197C159.176 9.54534 159.176 13.8564 159.176 18.1598C159.176 18.8821 158.863 19.2817 158.13 19.4662C157.687 19.5814 157.228 19.6122 156.778 19.7044C156.686 19.7197 156.61 19.8043 156.526 19.8581C156.61 19.9119 156.686 19.9733 156.778 20.0118C156.831 20.0348 156.9 20.0194 156.969 20.0194C158.97 20.0194 160.963 20.0194 162.964 20.0194C163.514 20.0194 164.056 20.0271 164.606 20.0118C164.706 20.0118 164.797 19.9195 164.897 19.8658C164.797 19.812 164.706 19.7274 164.606 19.7121C164.331 19.666 164.049 19.6583 163.774 19.6122C162.689 19.4124 162.376 19.0281 162.376 17.9292C162.376 14.0562 162.376 10.1832 162.376 6.31013C162.376 5.85674 162.376 5.39566 162.376 4.91153C162.796 4.91153 163.163 4.89616 163.529 4.91153C164.843 4.96532 165.943 5.48788 166.684 6.57909C167.218 7.37829 167.616 8.2697 168.059 9.12269C168.143 9.28407 168.204 9.46081 168.402 9.34554C168.494 9.29175 168.57 9.115 168.563 8.99974C168.456 7.62419 168.318 6.25634 168.219 4.88079C168.196 4.51193 168.081 4.41972 167.722 4.41972C163.094 4.43509 158.458 4.4274 153.83 4.4274C153.7 4.4274 153.562 4.4274 153.41 4.4274C153.257 6.09496 153.112 7.70104 152.959 9.32249C153.127 9.35323 153.242 9.3686 153.387 9.39165C154.318 6.63288 155.77 4.5273 159.161 4.94227Z" fill="#003260"/>
<path d="M0 23.9155C0.725575 22.6706 1.42824 21.4565 2.13854 20.25C3.60496 17.7448 5.07903 15.2396 6.53782 12.7268C6.60656 12.6038 6.61419 12.3733 6.53782 12.2503C5.0332 9.66062 3.50568 7.06322 1.98579 4.47351C1.3595 3.40535 0.733213 2.34488 0.114565 1.27672C0.0763764 1.21524 0.0534635 1.1384 0.00763764 1.0385C0.404795 1.0385 0.771401 1.02313 1.13801 1.04618C1.2373 1.05387 1.3595 1.15377 1.41296 1.25367C2.86411 3.72811 4.29999 6.20255 5.7435 8.68467C6.42325 9.85273 7.103 11.0208 7.79039 12.1812C7.92023 12.404 7.92787 12.5731 7.79039 12.8036C5.8657 16.0926 3.9563 19.3893 2.03925 22.6783C1.95523 22.8243 1.87122 22.9627 1.78721 23.1087C1.2373 24.0692 1.19147 24.0923 0 23.9155Z" fill="#003260"/>
<path d="M216 1.03081C215.443 1.9837 214.923 2.86743 214.404 3.75885C212.876 6.36393 211.379 8.99206 209.806 11.5664C209.393 12.2426 209.363 12.7114 209.791 13.4184C211.807 16.7381 213.739 20.1117 215.71 23.4622C215.794 23.6082 215.878 23.7619 215.985 23.954C215.572 23.954 215.213 23.9847 214.87 23.9386C214.725 23.9156 214.564 23.7465 214.48 23.6005C213.487 21.9099 212.51 20.2116 211.517 18.5133C210.394 16.5844 209.271 14.6633 208.141 12.7345C208.042 12.5654 208.026 12.4348 208.133 12.2503C210.173 8.76152 212.227 5.28808 214.22 1.77622C214.572 1.15377 214.946 0.907859 215.611 1.01544C215.717 1.0385 215.817 1.03081 216 1.03081Z" fill="#003260"/>
<path d="M189.39 12.1427C189.39 9.71441 189.39 7.33219 189.39 4.90385C190.643 4.91154 191.896 4.79627 193.087 5.27271C194.133 5.69537 194.729 6.4792 194.882 7.60115C195.065 8.94595 194.935 10.2293 193.858 11.1899C193.484 11.5203 192.98 11.7431 192.499 11.9122C191.491 12.2657 190.437 12.1274 189.39 12.1427Z" fill="#003260"/>
<path d="M173.649 6.87112C174.474 9.15344 175.299 11.4358 176.139 13.7642C174.39 13.7642 172.702 13.7642 170.968 13.7642C171.824 11.4665 172.679 9.16881 173.535 6.87112C173.581 6.8788 173.611 6.8788 173.649 6.87112Z" fill="#003260"/>
<path d="M53.8987 12.1043C53.8987 11.9506 53.8987 11.8046 53.8987 11.6509C53.8987 9.52998 53.9064 7.40903 53.8911 5.28808C53.8911 4.95764 53.9904 4.86543 54.3035 4.89617C55.2124 4.97301 56.1442 4.91922 57.0302 5.11134C58.9625 5.5263 59.5277 6.91722 59.4818 8.63088C59.4589 9.37629 59.2985 10.0986 58.8403 10.7211C58.1834 11.6279 57.2364 11.9967 56.1824 12.0889C55.4415 12.1581 54.693 12.1043 53.8987 12.1043Z" fill="#003260"/>
<path d="M76.9873 12.2887C77.0102 13.8795 76.9109 15.4548 76.3686 16.9687C75.9257 18.2059 75.2383 19.251 73.9399 19.6967C71.9694 20.3729 69.6552 19.835 68.6546 17.399C68.1277 16.1003 67.9291 14.7478 67.8756 13.3646C67.7916 11.4204 67.8527 9.48387 68.479 7.60883C68.8379 6.54067 69.3955 5.61083 70.4113 5.04217C72.1145 4.08928 74.9709 4.28908 76.1471 6.96332C76.697 8.2236 76.8956 9.55303 76.9796 10.9132C77.0102 11.3666 76.9873 11.8277 76.9873 12.2887Z" fill="#003260"/>
<path d="M127.312 12.527C127.281 14.0408 127.174 15.6315 126.594 17.1454C126.242 18.0676 125.715 18.8591 124.86 19.4047C123.05 20.5651 120.369 19.9119 119.285 18.0522C118.628 16.9226 118.376 15.6777 118.254 14.402C118.055 12.3425 118.07 10.2984 118.574 8.27739C118.872 7.06322 119.369 5.94127 120.43 5.20355C122.63 3.67431 125.609 4.68868 126.563 7.23996C127.19 8.92289 127.296 10.675 127.312 12.527Z" fill="#003260"/>
<path d="M44.3976 11.8815C44.3823 13.7642 44.2907 15.3242 43.7866 16.8303C43.4582 17.8217 42.9693 18.7054 42.0834 19.3048C39.9983 20.7111 37.1266 19.8581 36.0878 17.5373C35.6219 16.4999 35.4157 15.401 35.3164 14.2791C35.1637 12.6192 35.179 10.967 35.4386 9.31481C35.5914 8.33118 35.8587 7.37829 36.3628 6.49456C37.8292 3.90485 41.6175 3.82032 43.1832 6.34855C43.9393 7.56272 44.1837 8.93058 44.3136 10.3215C44.367 10.9363 44.3747 11.5587 44.3976 11.8815Z" fill="#003260"/>
</svg>
